# Blender 4.5.4 LTS
# www.blender.org
mtllib HatMonkey.mtl
o Cone
v 0.000000 0.720000 -1.000000
v 0.195090 0.720000 -0.980785
v 0.382683 0.720000 -0.923880
v 0.555570 0.720000 -0.831470
v 0.707107 0.720000 -0.707107
v 0.831470 0.720000 -0.555570
v 0.923880 0.720000 -0.382683
v 0.980785 0.720000 -0.195090
v 1.000000 0.720000 0.000000
v 0.980785 0.720000 0.195090
v 0.923880 0.720000 0.382683
v 0.831470 0.720000 0.555570
v 0.707107 0.720000 0.707107
v 0.555570 0.720000 0.831470
v 0.382683 0.720000 0.923880
v 0.195090 0.720000 0.980785
v 0.000000 0.720000 1.000000
v -0.195090 0.720000 0.980785
v -0.382683 0.720000 0.923880
v -0.555570 0.720000 0.831470
v -0.707107 0.720000 0.707107
v -0.831470 0.720000 0.555570
v -0.923880 0.720000 0.382683
v -0.980785 0.720000 0.195090
v -1.000000 0.720000 0.000000
v -0.980785 0.720000 -0.195090
v -0.923880 0.720000 -0.382683
v -0.831470 0.720000 -0.555570
v -0.707107 0.720000 -0.707107
v -0.555570 0.720000 -0.831470
v -0.382683 0.720000 -0.923880
v -0.195090 0.720000 -0.980785
v 0.000000 2.720000 0.000000
vn 0.0878 0.4455 -0.8910
vn 0.2599 0.4455 -0.8567
vn 0.4220 0.4455 -0.7896
vn 0.5680 0.4455 -0.6921
vn 0.6921 0.4455 -0.5680
vn 0.7896 0.4455 -0.4220
vn 0.8567 0.4455 -0.2599
vn 0.8910 0.4455 -0.0878
vn 0.8910 0.4455 0.0878
vn 0.8567 0.4455 0.2599
vn 0.7896 0.4455 0.4220
vn 0.6921 0.4455 0.5680
vn 0.5680 0.4455 0.6921
vn 0.4220 0.4455 0.7896
vn 0.2599 0.4455 0.8567
vn 0.0878 0.4455 0.8910
vn -0.0878 0.4455 0.8910
vn -0.2599 0.4455 0.8567
vn -0.4220 0.4455 0.7896
vn -0.5680 0.4455 0.6921
vn -0.6921 0.4455 0.5680
vn -0.7896 0.4455 0.4220
vn -0.8567 0.4455 0.2599
vn -0.8910 0.4455 0.0878
vn -0.8910 0.4455 -0.0878
vn -0.8567 0.4455 -0.2599
vn -0.7896 0.4455 -0.4220
vn -0.6921 0.4455 -0.5680
vn -0.5680 0.4455 -0.6921
vn -0.4220 0.4455 -0.7896
vn -0.0000 -1.0000 -0.0000
vn -0.2599 0.4455 -0.8567
vn -0.0878 0.4455 -0.8910
vt 0.250000 0.490000
vt 0.250000 0.250000
vt 0.296822 0.485388
vt 0.341844 0.471731
vt 0.383337 0.449553
vt 0.419706 0.419706
vt 0.449553 0.383337
vt 0.471731 0.341844
vt 0.485388 0.296822
vt 0.490000 0.250000
vt 0.485388 0.203178
vt 0.471731 0.158156
vt 0.449553 0.116663
vt 0.419706 0.080294
vt 0.383337 0.050447
vt 0.341844 0.028269
vt 0.296822 0.014612
vt 0.250000 0.010000
vt 0.203178 0.014612
vt 0.158156 0.028269
vt 0.116663 0.050447
vt 0.080294 0.080294
vt 0.050447 0.116663
vt 0.028269 0.158156
vt 0.014612 0.203178
vt 0.010000 0.250000
vt 0.014612 0.296822
vt 0.028269 0.341844
vt 0.050447 0.383337
vt 0.080294 0.419706
vt 0.116663 0.449553
vt 0.158156 0.471731
vt 0.796822 0.014612
vt 0.514612 0.203178
vt 0.703178 0.485388
vt 0.203178 0.485388
vt 0.750000 0.490000
vt 0.796822 0.485388
vt 0.841844 0.471731
vt 0.883337 0.449553
vt 0.919706 0.419706
vt 0.949553 0.383337
vt 0.971731 0.341844
vt 0.985388 0.296822
vt 0.990000 0.250000
vt 0.985388 0.203178
vt 0.971731 0.158156
vt 0.949553 0.116663
vt 0.919706 0.080294
vt 0.883337 0.050447
vt 0.841844 0.028269
vt 0.750000 0.010000
vt 0.703178 0.014612
vt 0.658156 0.028269
vt 0.616663 0.050447
vt 0.580294 0.080294
vt 0.550447 0.116663
vt 0.528269 0.158156
vt 0.510000 0.250000
vt 0.514612 0.296822
vt 0.528269 0.341844
vt 0.550447 0.383337
vt 0.580294 0.419706
vt 0.616663 0.449553
vt 0.658156 0.471731
s 0
f 1/1/1 33/2/1 2/3/1
f 2/3/2 33/2/2 3/4/2
f 3/4/3 33/2/3 4/5/3
f 4/5/4 33/2/4 5/6/4
f 5/6/5 33/2/5 6/7/5
f 6/7/6 33/2/6 7/8/6
f 7/8/7 33/2/7 8/9/7
f 8/9/8 33/2/8 9/10/8
f 9/10/9 33/2/9 10/11/9
f 10/11/10 33/2/10 11/12/10
f 11/12/11 33/2/11 12/13/11
f 12/13/12 33/2/12 13/14/12
f 13/14/13 33/2/13 14/15/13
f 14/15/14 33/2/14 15/16/14
f 15/16/15 33/2/15 16/17/15
f 16/17/16 33/2/16 17/18/16
f 17/18/17 33/2/17 18/19/17
f 18/19/18 33/2/18 19/20/18
f 19/20/19 33/2/19 20/21/19
f 20/21/20 33/2/20 21/22/20
f 21/22/21 33/2/21 22/23/21
f 22/23/22 33/2/22 23/24/22
f 23/24/23 33/2/23 24/25/23
f 24/25/24 33/2/24 25/26/24
f 25/26/25 33/2/25 26/27/25
f 26/27/26 33/2/26 27/28/26
f 27/28/27 33/2/27 28/29/27
f 28/29/28 33/2/28 29/30/28
f 29/30/29 33/2/29 30/31/29
f 30/31/30 33/2/30 31/32/30
f 16/33/31 24/34/31 32/35/31
f 31/32/32 33/2/32 32/36/32
f 32/36/33 33/2/33 1/1/33
f 32/35/31 1/37/31 2/38/31
f 2/38/31 3/39/31 4/40/31
f 4/40/31 5/41/31 6/42/31
f 6/42/31 7/43/31 8/44/31
f 8/44/31 9/45/31 10/46/31
f 10/46/31 11/47/31 12/48/31
f 12/48/31 13/49/31 14/50/31
f 14/50/31 15/51/31 16/33/31
f 16/33/31 17/52/31 18/53/31
f 18/53/31 19/54/31 20/55/31
f 20/55/31 21/56/31 22/57/31
f 22/57/31 23/58/31 24/34/31
f 24/34/31 25/59/31 26/60/31
f 26/60/31 27/61/31 28/62/31
f 28/62/31 29/63/31 30/64/31
f 30/64/31 31/65/31 32/35/31
f 32/35/31 2/38/31 4/40/31
f 4/40/31 6/42/31 8/44/31
f 8/44/31 10/46/31 12/48/31
f 12/48/31 14/50/31 16/33/31
f 16/33/31 18/53/31 20/55/31
f 20/55/31 22/57/31 24/34/31
f 24/34/31 26/60/31 28/62/31
f 28/62/31 30/64/31 32/35/31
f 32/35/31 4/40/31 8/44/31
f 8/44/31 12/48/31 16/33/31
f 16/33/31 20/55/31 24/34/31
f 24/34/31 28/62/31 32/35/31
f 32/35/31 8/44/31 16/33/31
o Suzanne
v 0.437500 0.164062 0.765625
v -0.437500 0.164062 0.765625
v 0.500000 0.093750 0.687500
v -0.500000 0.093750 0.687500
v 0.546875 0.054688 0.578125
v -0.546875 0.054688 0.578125
v 0.351562 -0.023438 0.617188
v -0.351562 -0.023438 0.617188
v 0.351562 0.031250 0.718750
v -0.351562 0.031250 0.718750
v 0.351562 0.132812 0.781250
v -0.351562 0.132812 0.781250
v 0.273438 0.164062 0.796875
v -0.273438 0.164062 0.796875
v 0.203125 0.093750 0.742188
v -0.203125 0.093750 0.742188
v 0.156250 0.054688 0.648438
v -0.156250 0.054688 0.648438
v 0.078125 0.242188 0.656250
v -0.078125 0.242188 0.656250
v 0.140625 0.242188 0.742188
v -0.140625 0.242188 0.742188
v 0.242188 0.242188 0.796875
v -0.242188 0.242188 0.796875
v 0.273438 0.328125 0.796875
v -0.273438 0.328125 0.796875
v 0.203125 0.390625 0.742188
v -0.203125 0.390625 0.742188
v 0.156250 0.437500 0.648438
v -0.156250 0.437500 0.648438
v 0.351562 0.515625 0.617188
v -0.351562 0.515625 0.617188
v 0.351562 0.453125 0.718750
v -0.351562 0.453125 0.718750
v 0.351562 0.359375 0.781250
v -0.351562 0.359375 0.781250
v 0.437500 0.328125 0.765625
v -0.437500 0.328125 0.765625
v 0.500000 0.390625 0.687500
v -0.500000 0.390625 0.687500
v 0.546875 0.437500 0.578125
v -0.546875 0.437500 0.578125
v 0.625000 0.242188 0.562500
v -0.625000 0.242188 0.562500
v 0.562500 0.242188 0.671875
v -0.562500 0.242188 0.671875
v 0.468750 0.242188 0.757812
v -0.468750 0.242188 0.757812
v 0.476562 0.242188 0.773438
v -0.476562 0.242188 0.773438
v 0.445312 0.335938 0.781250
v -0.445312 0.335938 0.781250
v 0.351562 0.375000 0.804688
v -0.351562 0.375000 0.804688
v 0.265625 0.335938 0.820312
v -0.265625 0.335938 0.820312
v 0.226562 0.242188 0.820312
v -0.226562 0.242188 0.820312
v 0.265625 0.156250 0.820312
v -0.265625 0.156250 0.820312
v 0.351562 0.242188 0.828125
v -0.351562 0.242188 0.828125
v 0.351562 0.117188 0.804688
v -0.351562 0.117188 0.804688
v 0.445312 0.156250 0.781250
v -0.445312 0.156250 0.781250
v 0.000000 0.429688 0.742188
v 0.000000 0.351562 0.820312
v 0.000000 -0.679688 0.734375
v 0.000000 -0.320312 0.781250
v 0.000000 -0.187500 0.796875
v 0.000000 -0.773438 0.718750
v 0.000000 0.406250 0.601562
v 0.000000 0.570312 0.570312
v 0.000000 0.898438 -0.546875
v 0.000000 0.562500 -0.851562
v 0.000000 0.070312 -0.828125
v 0.000000 -0.382812 -0.351562
v 0.203125 -0.187500 0.562500
v -0.203125 -0.187500 0.562500
v 0.312500 -0.437500 0.570312
v -0.312500 -0.437500 0.570312
v 0.351562 -0.695312 0.570312
v -0.351562 -0.695312 0.570312
v 0.367188 -0.890625 0.531250
v -0.367188 -0.890625 0.531250
v 0.328125 -0.945312 0.523438
v -0.328125 -0.945312 0.523438
v 0.179688 -0.968750 0.554688
v -0.179688 -0.968750 0.554688
v 0.000000 -0.984375 0.578125
v 0.437500 -0.140625 0.531250
v -0.437500 -0.140625 0.531250
v 0.632812 -0.039062 0.539062
v -0.632812 -0.039062 0.539062
v 0.828125 0.148438 0.445312
v -0.828125 0.148438 0.445312
v 0.859375 0.429688 0.593750
v -0.859375 0.429688 0.593750
v 0.710938 0.484375 0.625000
v -0.710938 0.484375 0.625000
v 0.492188 0.601562 0.687500
v -0.492188 0.601562 0.687500
v 0.320312 0.757812 0.734375
v -0.320312 0.757812 0.734375
v 0.156250 0.718750 0.757812
v -0.156250 0.718750 0.757812
v 0.062500 0.492188 0.750000
v -0.062500 0.492188 0.750000
v 0.164062 0.414062 0.773438
v -0.164062 0.414062 0.773438
v 0.125000 0.304688 0.765625
v -0.125000 0.304688 0.765625
v 0.203125 0.093750 0.742188
v -0.203125 0.093750 0.742188
v 0.375000 0.015625 0.703125
v -0.375000 0.015625 0.703125
v 0.492188 0.062500 0.671875
v -0.492188 0.062500 0.671875
v 0.625000 0.187500 0.648438
v -0.625000 0.187500 0.648438
v 0.640625 0.296875 0.648438
v -0.640625 0.296875 0.648438
v 0.601562 0.375000 0.664062
v -0.601562 0.375000 0.664062
v 0.429688 0.437500 0.718750
v -0.429688 0.437500 0.718750
v 0.250000 0.468750 0.757812
v -0.250000 0.468750 0.757812
v 0.000000 -0.765625 0.734375
v 0.109375 -0.718750 0.734375
v -0.109375 -0.718750 0.734375
v 0.117188 -0.835938 0.710938
v -0.117188 -0.835938 0.710938
v 0.062500 -0.882812 0.695312
v -0.062500 -0.882812 0.695312
v 0.000000 -0.890625 0.687500
v 0.000000 -0.195312 0.750000
v 0.000000 -0.140625 0.742188
v 0.101562 -0.148438 0.742188
v -0.101562 -0.148438 0.742188
v 0.125000 -0.226562 0.750000
v -0.125000 -0.226562 0.750000
v 0.085938 -0.289062 0.742188
v -0.085938 -0.289062 0.742188
v 0.398438 -0.046875 0.671875
v -0.398438 -0.046875 0.671875
v 0.617188 0.054688 0.625000
v -0.617188 0.054688 0.625000
v 0.726562 0.203125 0.601562
v -0.726562 0.203125 0.601562
v 0.742188 0.375000 0.656250
v -0.742188 0.375000 0.656250
v 0.687500 0.414062 0.726562
v -0.687500 0.414062 0.726562
v 0.437500 0.546875 0.796875
v -0.437500 0.546875 0.796875
v 0.312500 0.640625 0.835938
v -0.312500 0.640625 0.835938
v 0.203125 0.617188 0.851562
v -0.203125 0.617188 0.851562
v 0.101562 0.429688 0.843750
v -0.101562 0.429688 0.843750
v 0.125000 -0.101562 0.812500
v -0.125000 -0.101562 0.812500
v 0.210938 -0.445312 0.710938
v -0.210938 -0.445312 0.710938
v 0.250000 -0.703125 0.687500
v -0.250000 -0.703125 0.687500
v 0.265625 -0.820312 0.664062
v -0.265625 -0.820312 0.664062
v 0.234375 -0.914062 0.632812
v -0.234375 -0.914062 0.632812
v 0.164062 -0.929688 0.632812
v -0.164062 -0.929688 0.632812
v 0.000000 -0.945312 0.640625
v 0.000000 0.046875 0.726562
v 0.000000 0.210938 0.765625
v 0.328125 0.476562 0.742188
v -0.328125 0.476562 0.742188
v 0.164062 0.140625 0.750000
v -0.164062 0.140625 0.750000
v 0.132812 0.210938 0.757812
v -0.132812 0.210938 0.757812
v 0.117188 -0.687500 0.734375
v -0.117188 -0.687500 0.734375
v 0.078125 -0.445312 0.750000
v -0.078125 -0.445312 0.750000
v 0.000000 -0.445312 0.750000
v 0.000000 -0.328125 0.742188
v 0.093750 -0.273438 0.781250
v -0.093750 -0.273438 0.781250
v 0.132812 -0.226562 0.796875
v -0.132812 -0.226562 0.796875
v 0.109375 -0.132812 0.781250
v -0.109375 -0.132812 0.781250
v 0.039062 -0.125000 0.781250
v -0.039062 -0.125000 0.781250
v 0.000000 -0.203125 0.828125
v 0.046875 -0.148438 0.812500
v -0.046875 -0.148438 0.812500
v 0.093750 -0.156250 0.812500
v -0.093750 -0.156250 0.812500
v 0.109375 -0.226562 0.828125
v -0.109375 -0.226562 0.828125
v 0.078125 -0.250000 0.804688
v -0.078125 -0.250000 0.804688
v 0.000000 -0.289062 0.804688
v 0.257812 -0.312500 0.554688
v -0.257812 -0.312500 0.554688
v 0.164062 -0.242188 0.710938
v -0.164062 -0.242188 0.710938
v 0.179688 -0.312500 0.710938
v -0.179688 -0.312500 0.710938
v 0.234375 -0.250000 0.554688
v -0.234375 -0.250000 0.554688
v 0.000000 -0.875000 0.687500
v 0.046875 -0.867188 0.687500
v -0.046875 -0.867188 0.687500
v 0.093750 -0.820312 0.710938
v -0.093750 -0.820312 0.710938
v 0.093750 -0.742188 0.726562
v -0.093750 -0.742188 0.726562
v 0.000000 -0.781250 0.656250
v 0.093750 -0.750000 0.664062
v -0.093750 -0.750000 0.664062
v 0.093750 -0.812500 0.640625
v -0.093750 -0.812500 0.640625
v 0.046875 -0.851562 0.632812
v -0.046875 -0.851562 0.632812
v 0.000000 -0.859375 0.632812
v 0.171875 0.218750 0.781250
v -0.171875 0.218750 0.781250
v 0.187500 0.156250 0.773438
v -0.187500 0.156250 0.773438
v 0.335938 0.429688 0.757812
v -0.335938 0.429688 0.757812
v 0.273438 0.421875 0.773438
v -0.273438 0.421875 0.773438
v 0.421875 0.398438 0.773438
v -0.421875 0.398438 0.773438
v 0.562500 0.351562 0.695312
v -0.562500 0.351562 0.695312
v 0.585938 0.289062 0.687500
v -0.585938 0.289062 0.687500
v 0.578125 0.195312 0.679688
v -0.578125 0.195312 0.679688
v 0.476562 0.101562 0.718750
v -0.476562 0.101562 0.718750
v 0.375000 0.062500 0.742188
v -0.375000 0.062500 0.742188
v 0.226562 0.109375 0.781250
v -0.226562 0.109375 0.781250
v 0.179688 0.296875 0.781250
v -0.179688 0.296875 0.781250
v 0.210938 0.375000 0.781250
v -0.210938 0.375000 0.781250
v 0.234375 0.359375 0.757812
v -0.234375 0.359375 0.757812
v 0.195312 0.296875 0.757812
v -0.195312 0.296875 0.757812
v 0.242188 0.125000 0.757812
v -0.242188 0.125000 0.757812
v 0.375000 0.085938 0.726562
v -0.375000 0.085938 0.726562
v 0.460938 0.117188 0.703125
v -0.460938 0.117188 0.703125
v 0.546875 0.210938 0.671875
v -0.546875 0.210938 0.671875
v 0.554688 0.281250 0.671875
v -0.554688 0.281250 0.671875
v 0.531250 0.335938 0.679688
v -0.531250 0.335938 0.679688
v 0.414062 0.390625 0.750000
v -0.414062 0.390625 0.750000
v 0.281250 0.398438 0.765625
v -0.281250 0.398438 0.765625
v 0.335938 0.406250 0.750000
v -0.335938 0.406250 0.750000
v 0.203125 0.171875 0.750000
v -0.203125 0.171875 0.750000
v 0.195312 0.226562 0.750000
v -0.195312 0.226562 0.750000
v 0.109375 0.460938 0.609375
v -0.109375 0.460938 0.609375
v 0.195312 0.664062 0.617188
v -0.195312 0.664062 0.617188
v 0.335938 0.687500 0.593750
v -0.335938 0.687500 0.593750
v 0.484375 0.554688 0.554688
v -0.484375 0.554688 0.554688
v 0.679688 0.453125 0.492188
v -0.679688 0.453125 0.492188
v 0.796875 0.406250 0.460938
v -0.796875 0.406250 0.460938
v 0.773438 0.164062 0.375000
v -0.773438 0.164062 0.375000
v 0.601562 0.000000 0.414062
v -0.601562 0.000000 0.414062
v 0.437500 -0.093750 0.468750
v -0.437500 -0.093750 0.468750
v 0.000000 0.898438 0.289062
v 0.000000 0.984375 -0.078125
v 0.000000 -0.195312 -0.671875
v 0.000000 -0.460938 0.187500
v 0.000000 -0.976562 0.460938
v 0.000000 -0.804688 0.343750
v 0.000000 -0.570312 0.320312
v 0.000000 -0.484375 0.281250
v 0.851562 0.234375 0.054688
v -0.851562 0.234375 0.054688
v 0.859375 0.320312 -0.046875
v -0.859375 0.320312 -0.046875
v 0.773438 0.265625 -0.437500
v -0.773438 0.265625 -0.437500
v 0.460938 0.437500 -0.703125
v -0.460938 0.437500 -0.703125
v 0.734375 -0.046875 0.070312
v -0.734375 -0.046875 0.070312
v 0.593750 -0.125000 -0.164062
v -0.593750 -0.125000 -0.164062
v 0.640625 -0.007812 -0.429688
v -0.640625 -0.007812 -0.429688
v 0.335938 0.054688 -0.664062
v -0.335938 0.054688 -0.664062
v 0.234375 -0.351562 0.406250
v -0.234375 -0.351562 0.406250
v 0.179688 -0.414062 0.257812
v -0.179688 -0.414062 0.257812
v 0.289062 -0.710938 0.382812
v -0.289062 -0.710938 0.382812
v 0.250000 -0.500000 0.390625
v -0.250000 -0.500000 0.390625
v 0.328125 -0.914062 0.398438
v -0.328125 -0.914062 0.398438
v 0.140625 -0.757812 0.367188
v -0.140625 -0.757812 0.367188
v 0.125000 -0.539062 0.359375
v -0.125000 -0.539062 0.359375
v 0.164062 -0.945312 0.437500
v -0.164062 -0.945312 0.437500
v 0.218750 -0.281250 0.429688
v -0.218750 -0.281250 0.429688
v 0.210938 -0.226562 0.468750
v -0.210938 -0.226562 0.468750
v 0.203125 -0.171875 0.500000
v -0.203125 -0.171875 0.500000
v 0.210938 -0.390625 0.164062
v -0.210938 -0.390625 0.164062
v 0.296875 -0.312500 -0.265625
v -0.296875 -0.312500 -0.265625
v 0.343750 -0.148438 -0.539062
v -0.343750 -0.148438 -0.539062
v 0.453125 0.867188 -0.382812
v -0.453125 0.867188 -0.382812
v 0.453125 0.929688 -0.070312
v -0.453125 0.929688 -0.070312
v 0.453125 0.851562 0.234375
v -0.453125 0.851562 0.234375
v 0.460938 0.523438 0.429688
v -0.460938 0.523438 0.429688
v 0.726562 0.406250 0.335938
v -0.726562 0.406250 0.335938
v 0.632812 0.453125 0.281250
v -0.632812 0.453125 0.281250
v 0.640625 0.703125 0.054688
v -0.640625 0.703125 0.054688
v 0.796875 0.562500 0.125000
v -0.796875 0.562500 0.125000
v 0.796875 0.617188 -0.117188
v -0.796875 0.617188 -0.117188
v 0.640625 0.750000 -0.195312
v -0.640625 0.750000 -0.195312
v 0.640625 0.679688 -0.445312
v -0.640625 0.679688 -0.445312
v 0.796875 0.539062 -0.359375
v -0.796875 0.539062 -0.359375
v 0.617188 0.328125 -0.585938
v -0.617188 0.328125 -0.585938
v 0.484375 0.023438 -0.546875
v -0.484375 0.023438 -0.546875
v 0.820312 0.328125 -0.203125
v -0.820312 0.328125 -0.203125
v 0.406250 -0.171875 0.148438
v -0.406250 -0.171875 0.148438
v 0.429688 -0.195312 -0.210938
v -0.429688 -0.195312 -0.210938
v 0.890625 0.406250 -0.234375
v -0.890625 0.406250 -0.234375
v 0.773438 -0.140625 -0.125000
v -0.773438 -0.140625 -0.125000
v 1.039062 -0.101562 -0.328125
v -1.039062 -0.101562 -0.328125
v 1.281250 0.054688 -0.429688
v -1.281250 0.054688 -0.429688
v 1.351562 0.320312 -0.421875
v -1.351562 0.320312 -0.421875
v 1.234375 0.507812 -0.421875
v -1.234375 0.507812 -0.421875
v 1.023438 0.476562 -0.312500
v -1.023438 0.476562 -0.312500
v 1.015625 0.414062 -0.289062
v -1.015625 0.414062 -0.289062
v 1.187500 0.437500 -0.390625
v -1.187500 0.437500 -0.390625
v 1.265625 0.289062 -0.406250
v -1.265625 0.289062 -0.406250
v 1.210938 0.078125 -0.406250
v -1.210938 0.078125 -0.406250
v 1.031250 -0.039062 -0.304688
v -1.031250 -0.039062 -0.304688
v 0.828125 -0.070312 -0.132812
v -0.828125 -0.070312 -0.132812
v 0.921875 0.359375 -0.218750
v -0.921875 0.359375 -0.218750
v 0.945312 0.304688 -0.289062
v -0.945312 0.304688 -0.289062
v 0.882812 -0.023438 -0.210938
v -0.882812 -0.023438 -0.210938
v 1.039062 0.000000 -0.367188
v -1.039062 0.000000 -0.367188
v 1.187500 0.093750 -0.445312
v -1.187500 0.093750 -0.445312
v 1.234375 0.250000 -0.445312
v -1.234375 0.250000 -0.445312
v 1.171875 0.359375 -0.437500
v -1.171875 0.359375 -0.437500
v 1.023438 0.343750 -0.359375
v -1.023438 0.343750 -0.359375
v 0.843750 0.289062 -0.210938
v -0.843750 0.289062 -0.210938
v 0.835938 0.171875 -0.273438
v -0.835938 0.171875 -0.273438
v 0.757812 0.093750 -0.273438
v -0.757812 0.093750 -0.273438
v 0.820312 0.085938 -0.273438
v -0.820312 0.085938 -0.273438
v 0.843750 0.015625 -0.273438
v -0.843750 0.015625 -0.273438
v 0.812500 -0.015625 -0.273438
v -0.812500 -0.015625 -0.273438
v 0.726562 0.000000 -0.070312
v -0.726562 0.000000 -0.070312
v 0.718750 -0.023438 -0.171875
v -0.718750 -0.023438 -0.171875
v 0.718750 0.039062 -0.187500
v -0.718750 0.039062 -0.187500
v 0.796875 0.203125 -0.210938
v -0.796875 0.203125 -0.210938
v 0.890625 0.242188 -0.265625
v -0.890625 0.242188 -0.265625
v 0.890625 0.234375 -0.320312
v -0.890625 0.234375 -0.320312
v 0.812500 -0.015625 -0.320312
v -0.812500 -0.015625 -0.320312
v 0.851562 0.015625 -0.320312
v -0.851562 0.015625 -0.320312
v 0.828125 0.078125 -0.320312
v -0.828125 0.078125 -0.320312
v 0.765625 0.093750 -0.320312
v -0.765625 0.093750 -0.320312
v 0.843750 0.171875 -0.320312
v -0.843750 0.171875 -0.320312
v 1.039062 0.328125 -0.414062
v -1.039062 0.328125 -0.414062
v 1.187500 0.343750 -0.484375
v -1.187500 0.343750 -0.484375
v 1.257812 0.242188 -0.492188
v -1.257812 0.242188 -0.492188
v 1.210938 0.085938 -0.484375
v -1.210938 0.085938 -0.484375
v 1.046875 0.000000 -0.421875
v -1.046875 0.000000 -0.421875
v 0.882812 -0.015625 -0.265625
v -0.882812 -0.015625 -0.265625
v 0.953125 0.289062 -0.343750
v -0.953125 0.289062 -0.343750
v 0.890625 0.109375 -0.328125
v -0.890625 0.109375 -0.328125
v 0.937500 0.062500 -0.335938
v -0.937500 0.062500 -0.335938
v 1.000000 0.125000 -0.367188
v -1.000000 0.125000 -0.367188
v 0.960938 0.171875 -0.351562
v -0.960938 0.171875 -0.351562
v 1.015625 0.234375 -0.375000
v -1.015625 0.234375 -0.375000
v 1.054688 0.187500 -0.382812
v -1.054688 0.187500 -0.382812
v 1.109375 0.210938 -0.390625
v -1.109375 0.210938 -0.390625
v 1.085938 0.273438 -0.390625
v -1.085938 0.273438 -0.390625
v 1.023438 0.437500 -0.484375
v -1.023438 0.437500 -0.484375
v 1.250000 0.468750 -0.546875
v -1.250000 0.468750 -0.546875
v 1.367188 0.296875 -0.500000
v -1.367188 0.296875 -0.500000
v 1.312500 0.054688 -0.531250
v -1.312500 0.054688 -0.531250
v 1.039062 -0.085938 -0.492188
v -1.039062 -0.085938 -0.492188
v 0.789062 -0.125000 -0.328125
v -0.789062 -0.125000 -0.328125
v 0.859375 0.382812 -0.382812
v -0.859375 0.382812 -0.382812
vn 0.6617 -0.2026 0.7219
vn -0.6617 -0.2026 0.7219
vn 0.8268 -0.3051 0.4725
vn -0.8268 -0.3051 0.4725
vn 0.4076 -0.7905 0.4570
vn -0.4076 -0.7905 0.4570
vn 0.3791 -0.5163 0.7679
vn -0.3791 -0.5163 0.7679
vn -0.0859 -0.5222 0.8485
vn 0.0859 -0.5222 0.8485
vn -0.2664 -0.8487 0.4570
vn 0.2664 -0.8487 0.4570
vn -0.7824 -0.3294 0.5285
vn 0.7606 -0.3400 0.5531
vn -0.4706 -0.1981 0.8598
vn 0.4706 -0.1981 0.8598
vn -0.4649 0.1958 0.8634
vn 0.4649 0.1958 0.8634
vn -0.7656 0.3223 0.5568
vn 0.7683 0.3293 0.5488
vn -0.2560 0.8073 0.5317
vn 0.2487 0.8249 0.5076
vn -0.0821 0.6023 0.7940
vn 0.1017 0.5518 0.8277
vn 0.3329 0.5231 0.7846
vn -0.3861 0.5446 0.7445
vn 0.4246 0.7711 0.4745
vn -0.4059 0.7641 0.5014
vn 0.8251 0.2968 0.4808
vn -0.8299 0.2940 0.4742
vn 0.6888 0.1868 0.7005
vn -0.6617 0.2026 0.7219
vn 0.8400 0.3436 -0.4200
vn -0.7816 0.3058 -0.5437
vn 0.2074 0.8296 -0.5185
vn -0.2037 0.8146 -0.5431
vn -0.4056 0.7605 -0.5070
vn 0.4381 0.7988 -0.4123
vn -0.8642 0.3143 -0.3928
vn 0.7861 0.3276 -0.5241
vn -0.7783 -0.3538 -0.5188
vn 0.7782 -0.3538 -0.5188
vn -0.4381 -0.7988 -0.4123
vn 0.4381 -0.7988 -0.4123
vn 0.2037 -0.8146 -0.5431
vn -0.2037 -0.8146 -0.5431
vn 0.7683 -0.3293 -0.5488
vn -0.7683 -0.3293 -0.5488
vn 0.4000 -0.0623 0.9144
vn -0.4000 -0.0623 0.9144
vn 0.3069 -0.1754 0.9354
vn -0.3069 -0.1754 0.9354
vn 0.0945 -0.1835 0.9785
vn -0.0945 -0.1835 0.9785
vn -0.0624 -0.0283 0.9977
vn 0.0624 -0.0283 0.9977
vn -0.0624 0.0260 0.9977
vn 0.0624 0.0260 0.9977
vn 0.0996 0.1729 0.9799
vn -0.0996 0.1729 0.9799
vn 0.3036 0.1656 0.9383
vn -0.3036 0.1656 0.9383
vn 0.4002 0.0572 0.9147
vn -0.4002 0.0572 0.9147
vn 0.1367 -0.8748 0.4648
vn -0.1054 -0.8433 0.5270
vn 0.2303 -0.8656 0.4447
vn -0.1916 -0.8620 0.4693
vn 0.5788 -0.5049 0.6404
vn -0.5788 -0.5049 0.6404
vn 0.7763 -0.0633 0.6272
vn -0.7763 -0.0633 0.6272
vn 0.7471 0.1132 0.6550
vn -0.7471 0.1132 0.6550
vn 0.3747 -0.8345 0.4040
vn -0.3747 -0.8345 0.4040
vn 0.3557 -0.7290 0.5848
vn -0.4177 -0.5751 0.7034
vn 0.6947 -0.4197 0.5841
vn -0.6947 -0.4197 0.5841
vn 0.7028 -0.3915 0.5939
vn -0.5537 -0.2978 0.7777
vn 0.3127 0.3425 0.8860
vn -0.8227 0.3606 0.4395
vn 0.5091 0.6482 0.5663
vn -0.5041 0.6448 0.5745
vn 0.5977 0.5565 0.5771
vn -0.5977 0.5565 0.5771
vn -0.0486 0.6560 0.7532
vn 0.0371 0.6685 0.7428
vn -0.7104 0.2715 0.6494
vn 0.7386 0.3768 0.5590
vn -0.6013 0.5262 0.6013
vn 0.5774 0.5774 0.5774
vn 0.5070 -0.6281 0.5903
vn -0.5364 -0.3230 0.7797
vn 0.2226 -0.4694 0.8545
vn -0.2226 -0.4694 0.8545
vn -0.0348 -0.5792 0.8144
vn 0.1073 -0.5010 0.8588
vn -0.0899 -0.7843 0.6138
vn 0.0770 -0.5759 0.8139
vn 0.0547 -0.1695 0.9840
vn -0.0279 -0.8645 0.5019
vn 0.4260 -0.0609 0.9027
vn -0.1687 -0.3128 0.9347
vn 0.3352 -0.1828 0.9243
vn -0.4350 -0.1812 0.8820
vn 0.3579 -0.3068 0.8819
vn -0.3223 -0.2762 0.9054
vn 0.3069 0.2113 0.9280
vn -0.4815 -0.2408 0.8427
vn -0.1598 0.3903 0.9067
vn 0.1598 0.3903 0.9067
vn 0.6819 -0.2915 0.6709
vn -0.1854 -0.4956 0.8485
vn 0.0585 -0.0781 0.9952
vn -0.0585 -0.0781 0.9952
vn -0.0066 -0.2316 0.9728
vn -0.0585 -0.0845 0.9947
vn 0.1008 -0.7103 0.6966
vn -0.1008 -0.7103 0.6966
vn 0.1322 -0.5947 0.7930
vn -0.1322 -0.5947 0.7930
vn 0.3128 -0.1662 0.9352
vn -0.3143 -0.3928 0.8642
vn 0.3288 -0.0360 0.9437
vn -0.3288 -0.0360 0.9437
vn 0.3233 -0.0808 0.9429
vn -0.3233 -0.0808 0.9429
vn -0.0232 0.0511 0.9984
vn -0.0000 0.0665 0.9978
vn -0.0043 -0.0651 0.9979
vn -0.0000 -0.0665 0.9978
vn -0.0000 -0.0000 1.0000
vn 0.8447 -0.5335 0.0445
vn -0.8447 -0.5335 0.0445
vn 0.9500 0.2692 -0.1583
vn -0.9500 0.2692 -0.1583
vn 0.0693 0.9004 -0.4294
vn -0.1018 0.9165 -0.3870
vn -1.0000 -0.0000 -0.0000
vn 0.6905 0.5492 0.4708
vn 0.4071 -0.8956 0.1791
vn -0.4319 -0.8639 0.2592
vn 0.2873 -0.5747 0.7663
vn -0.2873 -0.5747 0.7663
vn -0.6326 0.5353 0.5596
vn 0.6326 0.5353 0.5596
vn 0.0862 0.7759 0.6250
vn -0.0862 0.7759 0.6250
vn 0.7532 0.2870 0.5918
vn -0.7639 0.2971 0.5729
vn 0.3416 -0.5409 0.7686
vn -0.3416 -0.5409 0.7686
vn 0.0502 0.2343 0.9709
vn -0.0375 0.2247 0.9737
vn -0.1304 -0.6087 0.7826
vn 0.1304 -0.6087 0.7826
vn -0.5059 0.0716 0.8596
vn 0.5059 0.0716 0.8596
vn -0.5774 -0.5774 0.5774
vn 0.5774 -0.5774 0.5774
vn 0.5460 -0.4310 0.7184
vn -0.3319 0.0738 0.9404
vn 0.3231 0.0311 0.9459
vn -0.2815 0.0662 0.9573
vn 0.7357 0.3910 0.5531
vn -0.8753 0.2059 0.4376
vn 0.8480 0.3180 0.4240
vn -0.8973 0.1994 0.3938
vn 0.8505 0.3798 0.3638
vn -0.8505 0.3798 0.3638
vn 0.1783 -0.4161 0.8917
vn -0.2524 -0.8655 0.4327
vn -0.1296 -0.1945 0.9723
vn 0.1296 -0.1945 0.9723
vn -0.4472 -0.0000 0.8944
vn 0.4472 -0.0000 0.8944
vn -0.1582 0.9494 0.2713
vn 0.1582 0.9494 0.2713
vn -0.6463 0.7337 0.2096
vn 0.6463 0.7337 0.2096
vn 1.0000 -0.0000 -0.0000
vn 0.3051 -0.9450 0.1181
vn -0.3051 -0.9450 0.1181
vn 0.0217 -0.3031 0.9527
vn -0.0217 -0.3031 0.9527
vn 0.1353 -0.3479 0.9277
vn -0.1353 -0.3479 0.9277
vn -0.4681 -0.2239 0.8548
vn 0.4681 -0.2239 0.8548
vn -0.2710 0.0271 0.9622
vn 0.2710 0.0271 0.9622
vn -0.1717 -0.0090 0.9851
vn 0.2595 0.1038 0.9601
vn -0.4332 -0.4874 0.7581
vn 0.6684 -0.4595 0.5849
vn -0.1599 -0.8797 0.4478
vn 0.1599 -0.8797 0.4478
vn 0.3900 -0.5895 0.7074
vn -0.3900 -0.5895 0.7074
vn 0.6547 -0.4589 0.6007
vn -0.6547 -0.4589 0.6007
vn 0.5378 -0.1144 0.8353
vn -0.5378 -0.1144 0.8353
vn 0.5657 0.1197 0.8159
vn -0.5774 0.1155 0.8083
vn 0.4082 0.4082 0.8165
vn -0.5214 0.6574 0.5441
vn 0.1796 0.7882 0.5886
vn -0.1796 0.7882 0.5886
vn 0.1881 0.3387 0.9219
vn -0.1881 0.3387 0.9219
vn -0.0870 0.2756 0.9573
vn 0.0870 0.2756 0.9573
vn 0.2804 -0.2181 0.9348
vn -0.3553 -0.5739 0.7379
vn 0.3015 -0.3015 0.9045
vn -0.3015 -0.3015 0.9045
vn -0.3766 -0.8339 0.4035
vn 0.0631 -0.3156 0.9468
vn 0.0823 -0.7822 0.6175
vn 0.2016 -0.9071 0.3696
vn -0.3707 -0.2851 0.8839
vn 0.3707 -0.2851 0.8839
vn -0.2692 -0.0577 0.9614
vn 0.4568 0.0508 0.8881
vn -0.2797 0.5245 0.8042
vn 0.2797 0.5245 0.8042
vn -0.0213 0.5546 0.8319
vn 0.0487 0.6815 0.7302
vn 0.3778 0.6342 0.6746
vn -0.3378 0.5221 0.7831
vn 0.4988 0.5300 0.6858
vn -0.4988 0.5300 0.6858
vn 0.5425 -0.3391 0.7686
vn -0.5425 -0.3391 0.7686
vn 0.8305 -0.0615 0.5536
vn -0.8305 -0.0615 0.5536
vn 0.7814 0.1116 0.6140
vn -0.7814 0.1116 0.6140
vn -0.4338 0.8888 -0.1481
vn 0.4338 0.8888 -0.1481
vn -0.8515 0.3744 -0.3670
vn 0.8515 0.3744 -0.3670
vn -0.2664 0.8710 -0.4127
vn 0.2197 0.8626 -0.4557
vn 0.5932 0.7445 -0.3063
vn -0.5914 0.7489 -0.2991
vn 0.3714 0.8685 -0.3284
vn -0.3653 0.8833 -0.2938
vn 0.2901 0.9141 -0.2833
vn -0.2901 0.9141 -0.2833
vn 0.8873 0.1343 -0.4412
vn -0.7964 0.1323 -0.5901
vn 0.5108 -0.6649 -0.5450
vn -0.5108 -0.6649 -0.5450
vn 0.3695 -0.8566 -0.3601
vn -0.3695 -0.8566 -0.3601
vn 0.3617 -0.3858 -0.8487
vn -0.1649 -0.6644 -0.7289
vn 0.1952 -0.0976 -0.9759
vn -0.3011 -0.0125 -0.9535
vn -0.0107 -0.5633 -0.8262
vn -0.2562 -0.3112 -0.9152
vn 0.1533 -0.9649 -0.2134
vn -0.1533 -0.9649 -0.2134
vn 0.1260 -0.9624 -0.2406
vn -0.1260 -0.9624 -0.2406
vn 0.9396 0.1573 -0.3041
vn -0.9396 0.1573 -0.3041
vn 0.9278 0.1838 -0.3246
vn -0.9278 0.1838 -0.3246
vn 0.2192 0.0766 -0.9727
vn -0.2192 0.0766 -0.9727
vn 0.1211 -0.0530 -0.9912
vn 0.1497 -0.3635 -0.9195
vn 0.9094 0.1371 -0.3927
vn -0.3706 -0.6780 -0.6349
vn 0.9202 0.1355 -0.3672
vn -0.9202 0.1355 -0.3672
vn 0.9173 0.3440 -0.2007
vn -0.9457 0.2673 -0.1850
vn 0.9004 0.3642 -0.2380
vn -0.9337 0.2813 -0.2215
vn 0.8945 0.4337 0.1084
vn -0.9501 0.2455 -0.1922
vn 0.1596 -0.9577 -0.2394
vn -0.1835 -0.7864 -0.5898
vn 0.3693 -0.4712 -0.8010
vn -0.3727 -0.4759 -0.7966
vn 0.2986 -0.8236 -0.4821
vn -0.3263 -0.8342 -0.4446
vn 0.2995 -0.9442 -0.1368
vn -0.2995 -0.9442 -0.1368
vn 0.3287 -0.9163 -0.2291
vn -0.3287 -0.9163 -0.2291
vn 0.8305 0.3333 -0.4463
vn -0.8642 -0.4737 0.1696
vn 0.9166 -0.3740 0.1414
vn -0.9166 -0.3740 0.1414
vn 0.2950 -0.0454 -0.9544
vn -0.4189 -0.2265 -0.8793
vn 0.1272 0.9658 0.2260
vn -0.1119 0.9626 0.2468
vn 0.1320 0.9750 -0.1788
vn -0.1320 0.9750 -0.1788
vn 0.3878 0.6192 -0.6828
vn -0.3878 0.6192 -0.6828
vn 0.4951 0.8618 -0.1100
vn -0.4951 0.8618 -0.1100
vn 0.2561 0.6447 0.7202
vn -0.2561 0.6447 0.7202
vn 0.5966 0.7888 0.1479
vn -0.5966 0.7888 0.1479
vn 0.7125 0.6755 -0.1900
vn -0.7125 0.6755 -0.1900
vn 0.7104 0.1364 -0.6904
vn -0.6304 0.2517 -0.7343
vn 0.6823 0.2318 -0.6933
vn -0.6823 0.2318 -0.6933
vn 0.6574 0.7254 -0.2040
vn -0.6574 0.7254 -0.2040
vn 0.7289 0.6729 0.1262
vn -0.7289 0.6729 0.1262
vn 0.7791 0.4074 0.4764
vn -0.7791 0.4074 0.4764
vn 0.3669 0.8840 -0.2898
vn -0.3238 0.9434 -0.0720
vn 0.2854 0.6237 0.7277
vn -0.1548 0.5080 0.8473
vn -0.1681 0.1005 -0.9806
vn 0.1681 0.1005 -0.9806
vn 0.2925 0.5674 0.7697
vn -0.2925 0.5674 0.7697
vn -0.1616 0.1847 0.9694
vn 0.1616 0.1847 0.9694
vn 0.8681 0.0893 -0.4883
vn -0.9340 0.2255 0.2773
vn 0.9276 0.0762 0.3657
vn -0.9276 0.0762 0.3657
vn 0.9750 0.2169 0.0490
vn -0.9750 0.2169 0.0490
vn 0.9817 -0.0304 -0.1882
vn -0.9956 0.0893 -0.0288
vn 0.7466 -0.6646 0.0285
vn -0.6374 -0.7651 0.0915
vn 0.3723 -0.9243 0.0847
vn -0.3720 -0.9244 0.0845
vn 0.3986 -0.8754 0.2734
vn -0.3986 -0.8754 0.2734
vn 0.6328 -0.7642 0.1247
vn -0.6328 -0.7642 0.1247
vn 0.7325 -0.6368 0.2407
vn -0.7325 -0.6368 0.2407
vn 0.2637 -0.4499 0.8533
vn -0.2637 -0.4499 0.8533
vn 0.5881 -0.3070 -0.7483
vn -0.5236 -0.3290 -0.7859
vn 0.4694 -0.2400 -0.8498
vn -0.5396 -0.3343 -0.7727
vn 0.4463 -0.8452 -0.2941
vn -0.2144 -0.8341 -0.5082
vn 0.6973 -0.6610 -0.2771
vn -0.7365 -0.6154 -0.2808
vn 0.4972 -0.4408 -0.7473
vn -0.4972 -0.4408 -0.7473
vn 0.3691 0.2855 0.8844
vn -0.3244 0.4867 0.8111
vn 0.4467 0.0975 0.8894
vn -0.4467 0.0975 0.8894
vn 0.3188 0.1993 0.9266
vn -0.1817 -0.0079 0.9833
vn 0.2076 -0.0836 0.9746
vn -0.2925 -0.0758 0.9533
vn 0.3398 0.0824 0.9369
vn -0.5847 -0.2198 0.7809
vn 0.5957 -0.3850 0.7049
vn -0.5957 -0.3850 0.7049
vn 0.4843 0.5580 0.6738
vn -0.4843 0.5580 0.6738
vn -0.2675 0.8318 0.4864
vn 0.2675 0.8318 0.4864
vn -0.8576 0.2223 0.4637
vn 0.7885 0.2366 0.5677
vn -0.5257 -0.3579 0.7717
vn 0.5242 -0.3548 0.7742
vn 0.4663 -0.5991 0.6509
vn -0.4390 -0.5252 0.7290
vn 0.7104 -0.4567 0.5356
vn -0.7104 -0.4567 0.5356
vn 0.7507 -0.6131 -0.2461
vn -0.6302 -0.7658 0.1282
vn -0.1788 0.2923 0.9395
vn 0.2175 0.2733 0.9370
vn 0.9042 -0.3578 -0.2332
vn -0.9042 -0.3578 -0.2332
vn 0.0400 0.3399 0.9396
vn -0.0400 0.3399 0.9396
vn 0.2734 0.9064 0.3221
vn -0.2734 0.9064 0.3221
vn 0.4480 -0.4480 0.7737
vn -0.7177 0.1689 0.6755
vn 0.5534 -0.5534 0.6225
vn -0.9008 -0.4075 0.1501
vn 0.5724 -0.3122 0.7582
vn -0.5815 -0.5217 0.6243
vn 0.5597 -0.5533 0.6169
vn -0.6138 -0.2571 0.7465
vn 0.8271 0.5323 -0.1802
vn -0.8271 0.5323 -0.1802
vn 0.9227 -0.3765 -0.0825
vn -0.8717 -0.4446 -0.2063
vn 0.9972 -0.0181 -0.0725
vn -0.9972 -0.0181 -0.0725
vn 0.6895 -0.6644 0.2883
vn -0.6895 -0.6644 0.2883
vn 0.7815 -0.6176 0.0882
vn -0.7930 -0.5947 0.1322
vn 0.7022 -0.7022 0.1170
vn -0.7022 -0.7022 0.1170
vn 0.1240 0.9921 0.0207
vn -0.2408 0.9631 -0.1204
vn 0.9435 0.3145 0.1048
vn -0.9251 0.3469 0.1542
vn 0.6213 -0.7767 0.1036
vn -0.6213 -0.7767 0.1036
vn -0.0000 1.0000 -0.0000
vn 0.6197 -0.6899 0.3742
vn -0.6197 -0.6899 0.3742
vn 0.2752 -0.8808 0.3853
vn -0.2752 -0.8808 0.3853
vn -0.7929 -0.5252 -0.3089
vn 0.7929 -0.5252 -0.3089
vn -0.8096 0.2429 -0.5343
vn 0.8538 0.2328 -0.4657
vn -0.5621 0.8231 -0.0803
vn 0.5433 0.6985 -0.4657
vn -0.0071 0.9899 0.1414
vn 0.1096 0.9939 -0.0157
vn 0.1046 0.0392 0.9937
vn -0.1738 0.0097 0.9847
vn 0.2461 0.0852 0.9655
vn -0.4134 0.0413 0.9096
vn 0.3009 0.0926 0.9491
vn -0.3009 0.0926 0.9491
vn 0.2104 0.0124 0.9775
vn -0.1220 0.0458 0.9915
vn -0.0099 0.3867 0.9221
vn 0.0099 0.3867 0.9221
vn 0.3787 -0.0364 0.9248
vn -0.4244 -0.0320 0.9049
vn 0.2530 -0.1897 0.9487
vn -0.2570 0.0723 0.9637
vn -0.4870 0.6088 0.6262
vn 0.2981 0.7454 0.5963
vn 0.6693 0.1802 0.7208
vn -0.6693 0.1802 0.7208
vn 0.4388 -0.2008 0.8759
vn -0.4723 -0.1986 0.8588
vn 0.5786 -0.1334 0.8046
vn -0.2975 -0.4062 0.8640
vn 0.5002 0.2833 0.8182
vn -0.5002 0.2833 0.8182
vn 0.2980 0.5802 0.7580
vn -0.2980 0.5802 0.7580
vn 0.0929 -0.9912 -0.0944
vn -0.0929 -0.9912 -0.0944
vn 0.4688 -0.8715 0.1442
vn -0.4688 -0.8715 0.1442
vn 0.9309 -0.2541 0.2624
vn -0.9264 -0.2460 0.2851
vn 0.8465 0.5291 -0.0595
vn -0.8267 0.5627 -0.0035
vn -0.2511 0.9439 -0.2145
vn 0.2146 0.9243 -0.3157
vn -0.4841 0.8743 -0.0361
vn 0.4196 0.8851 -0.2012
vn -0.5256 -0.0030 -0.8507
vn 0.5470 -0.0144 -0.8370
vn -0.1466 0.0104 -0.9891
vn 0.1466 0.0104 -0.9891
vn 0.4046 0.0266 -0.9141
vn -0.4046 0.0266 -0.9141
vn -0.8073 0.5901 0.0041
vn 0.7330 0.6786 0.0472
vn 0.4200 -0.2291 -0.8781
vn -0.4200 -0.2291 -0.8781
vn -0.0687 -0.9943 -0.0818
vn 0.0687 -0.9943 -0.0818
vn 0.6713 -0.1971 0.7145
vn -0.6713 -0.1971 0.7145
vn 0.8326 -0.3017 0.4646
vn -0.8326 -0.3017 0.4646
vn 0.4258 -0.7967 0.4290
vn -0.4258 -0.7967 0.4290
vn 0.3265 -0.4954 0.8050
vn -0.3265 -0.4954 0.8050
vn -0.0649 -0.5714 0.8181
vn 0.0649 -0.5714 0.8181
vn -0.2738 -0.8315 0.4834
vn 0.2738 -0.8315 0.4834
vn -0.7606 -0.3400 0.5531
vn 0.7824 -0.3294 0.5285
vn -0.4658 -0.1863 0.8651
vn 0.4658 -0.1863 0.8651
vn -0.4983 0.1812 0.8478
vn 0.4983 0.1812 0.8478
vn -0.7683 0.3293 0.5488
vn 0.7656 0.3223 0.5568
vn -0.2487 0.8249 0.5076
vn 0.2560 0.8073 0.5317
vn -0.1017 0.5518 0.8277
vn 0.0821 0.6023 0.7940
vn 0.3861 0.5446 0.7445
vn -0.3329 0.5231 0.7846
vn 0.4059 0.7641 0.5014
vn -0.4246 0.7711 0.4745
vn 0.8299 0.2940 0.4742
vn -0.8251 0.2968 0.4808
vn 0.6617 0.2026 0.7219
vn -0.6888 0.1868 0.7005
vn 0.7816 0.3058 -0.5437
vn -0.8400 0.3436 -0.4200
vn 0.2037 0.8146 -0.5431
vn -0.2074 0.8296 -0.5185
vn -0.4381 0.7988 -0.4123
vn 0.4056 0.7605 -0.5070
vn -0.7861 0.3276 -0.5241
vn 0.8642 0.3143 -0.3928
vn -0.8519 -0.3408 -0.3976
vn 0.8519 -0.3408 -0.3976
vn -0.4056 -0.7605 -0.5070
vn 0.4056 -0.7605 -0.5070
vn 0.2074 -0.8296 -0.5185
vn -0.2074 -0.8296 -0.5185
vn 0.8297 -0.3734 -0.4149
vn -0.8297 -0.3734 -0.4149
vn 0.1054 -0.8433 0.5270
vn -0.1367 -0.8748 0.4648
vn 0.1916 -0.8620 0.4693
vn -0.2303 -0.8656 0.4447
vn 0.5959 -0.4256 0.6810
vn -0.5959 -0.4256 0.6810
vn 0.7563 -0.0299 0.6535
vn -0.7563 -0.0299 0.6535
vn 0.8069 0.0689 0.5866
vn -0.8069 0.0689 0.5866
vn 0.2334 -0.7779 0.5834
vn -0.2334 -0.7779 0.5834
vn 0.4177 -0.5751 0.7034
vn -0.3557 -0.7290 0.5848
vn 0.6872 -0.4191 0.5934
vn -0.6872 -0.4191 0.5934
vn 0.5537 -0.2978 0.7777
vn -0.7028 -0.3915 0.5939
vn 0.8227 0.3606 0.4395
vn -0.3127 0.3425 0.8860
vn 0.5041 0.6448 0.5745
vn -0.5091 0.6482 0.5663
vn 0.6155 0.4924 0.6155
vn -0.6155 0.4924 0.6155
vn -0.0371 0.6685 0.7428
vn 0.0486 0.6560 0.7532
vn -0.7386 0.3768 0.5590
vn 0.7104 0.2715 0.6494
vn -0.5774 0.5774 0.5774
vn 0.6013 0.5262 0.6013
vn 0.5364 -0.3230 0.7797
vn -0.5070 -0.6281 0.5903
vn 0.2181 -0.4685 0.8561
vn -0.2181 -0.4685 0.8561
vn -0.1073 -0.5010 0.8588
vn 0.0348 -0.5792 0.8144
vn -0.0770 -0.5759 0.8139
vn 0.0899 -0.7843 0.6138
vn 0.0279 -0.8645 0.5019
vn -0.0547 -0.1695 0.9840
vn 0.1687 -0.3128 0.9347
vn -0.4260 -0.0609 0.9027
vn 0.4350 -0.1812 0.8820
vn -0.3352 -0.1828 0.9243
vn 0.3223 -0.2762 0.9054
vn -0.3579 -0.3068 0.8819
vn 0.4815 -0.2408 0.8427
vn -0.3069 0.2113 0.9280
vn -0.0317 -0.1899 0.9813
vn 0.0317 -0.1899 0.9813
vn 0.1854 -0.4956 0.8485
vn -0.6819 -0.2915 0.6709
vn 0.2623 -0.3498 0.8994
vn -0.2623 -0.3498 0.8994
vn 0.0585 -0.0845 0.9947
vn 0.0066 -0.2316 0.9728
vn -0.0136 -0.6507 0.7592
vn 0.0136 -0.6507 0.7592
vn 0.2404 -0.5476 0.8014
vn -0.2404 -0.5476 0.8014
vn 0.3143 -0.3928 0.8642
vn -0.3128 -0.1662 0.9352
vn 0.2821 -0.0164 0.9592
vn -0.2821 -0.0164 0.9592
vn 0.3273 -0.1432 0.9340
vn -0.3273 -0.1432 0.9340
vn 0.0232 0.0511 0.9984
vn 0.0043 -0.0651 0.9979
vn 0.7826 -0.6087 -0.1304
vn -0.7826 -0.6087 -0.1304
vn 0.9448 0.1919 -0.2657
vn -0.9448 0.1919 -0.2657
vn 0.1018 0.9165 -0.3870
vn -0.0693 0.9004 -0.4294
vn -0.6905 0.5492 0.4708
vn 0.4319 -0.8639 0.2592
vn -0.4071 -0.8956 0.1791
vn -0.6667 0.6667 0.3333
vn 0.6667 0.6667 0.3333
vn 0.1348 0.8086 0.5727
vn -0.1348 0.8086 0.5727
vn 0.7639 0.2971 0.5729
vn -0.7532 0.2870 0.5918
vn 0.4116 -0.8575 0.3087
vn -0.4116 -0.8575 0.3087
vn 0.0375 0.2247 0.9737
vn -0.0502 0.2343 0.9709
vn 0.1304 -0.2609 0.9565
vn -0.1304 -0.2609 0.9565
vn -0.0631 -0.8206 0.5681
vn 0.0631 -0.8206 0.5681
vn 0.7325 0.2817 0.6198
vn -0.7325 0.2817 0.6198
vn 0.3319 0.0738 0.9404
vn -0.5460 -0.4310 0.7184
vn 0.2815 0.0662 0.9573
vn -0.3231 0.0311 0.9459
vn 0.8753 0.2059 0.4376
vn -0.7357 0.3910 0.5531
vn 0.8973 0.1994 0.3938
vn -0.8480 0.3180 0.4240
vn 0.9586 0.0664 0.2767
vn -0.9586 0.0664 0.2767
vn 0.2524 -0.8655 0.4327
vn -0.1783 -0.4161 0.8917
vn -0.1751 -0.2043 0.9631
vn 0.1751 -0.2043 0.9631
vn -0.1219 -0.1829 0.9755
vn 0.1219 -0.1829 0.9755
vn -0.1562 0.3123 0.9370
vn 0.1562 0.3123 0.9370
vn -0.7238 0.6857 0.0762
vn 0.7238 0.6857 0.0762
vn 0.0478 -0.2870 0.9567
vn -0.0478 -0.2870 0.9567
vn -0.5488 -0.3293 0.7683
vn 0.5488 -0.3293 0.7683
vn -0.4945 -0.1130 0.8618
vn 0.4945 -0.1130 0.8618
vn -0.2595 0.1038 0.9601
vn 0.1717 -0.0090 0.9851
vn -0.6684 -0.4595 0.5849
vn 0.4332 -0.4874 0.7581
vn -0.1156 -0.6359 0.7631
vn 0.1156 -0.6359 0.7631
vn 0.4242 -0.6211 0.6590
vn -0.4242 -0.6211 0.6590
vn 0.4767 -0.3557 0.8039
vn -0.4767 -0.3557 0.8039
vn 0.5871 -0.0839 0.8052
vn -0.5871 -0.0839 0.8052
vn 0.5774 0.1155 0.8083
vn -0.5657 0.1197 0.8159
vn 0.5214 0.6574 0.5441
vn -0.4082 0.4082 0.8165
vn 0.3358 0.3478 0.8754
vn -0.3358 0.3478 0.8754
vn 0.1452 0.3774 0.9146
vn -0.1452 0.3774 0.9146
vn 0.0301 0.2306 0.9726
vn -0.0301 0.2306 0.9726
vn 0.3553 -0.5739 0.7379
vn -0.2804 -0.2181 0.9348
vn 0.2627 -0.2252 0.9382
vn -0.2627 -0.2252 0.9382
vn -0.0631 -0.3156 0.9468
vn 0.3766 -0.8339 0.4035
vn -0.2016 -0.9071 0.3696
vn -0.0823 -0.7822 0.6175
vn -0.3356 -0.2397 0.9110
vn 0.3356 -0.2397 0.9110
vn -0.4568 0.0508 0.8881
vn 0.2692 -0.0577 0.9614
vn -0.0247 0.4072 0.9130
vn 0.0247 0.4072 0.9130
vn -0.0487 0.6815 0.7302
vn 0.0213 0.5546 0.8319
vn 0.3378 0.5221 0.7831
vn -0.3778 0.6342 0.6746
vn 0.7895 -0.3158 0.5263
vn -0.7895 -0.3158 0.5263
vn 0.8070 -0.0807 0.5851
vn -0.8070 -0.0807 0.5851
vn 0.7868 0.1210 0.6052
vn -0.7868 0.1210 0.6052
vn -0.6357 0.6811 -0.3633
vn 0.6357 0.6811 -0.3633
vn -0.8507 0.3650 -0.3783
vn 0.8507 0.3650 -0.3783
vn -0.2197 0.8626 -0.4557
vn 0.2664 0.8710 -0.4127
vn 0.5914 0.7489 -0.2991
vn -0.5932 0.7445 -0.3063
vn 0.3653 0.8833 -0.2938
vn -0.3714 0.8685 -0.3284
vn 0.2760 0.9159 -0.2915
vn -0.2760 0.9159 -0.2915
vn 0.7964 0.1323 -0.5901
vn -0.8873 0.1343 -0.4412
vn 0.5442 -0.7524 -0.3712
vn -0.5442 -0.7524 -0.3712
vn 0.4027 -0.7323 -0.5492
vn -0.4027 -0.7323 -0.5492
vn 0.1649 -0.6644 -0.7289
vn -0.3617 -0.3858 -0.8487
vn 0.3011 -0.0125 -0.9535
vn -0.1952 -0.0976 -0.9759
vn 0.2562 -0.3112 -0.9152
vn 0.0107 -0.5633 -0.8262
vn 0.0779 -0.9948 -0.0663
vn -0.0779 -0.9948 -0.0663
vn 0.1094 -0.9718 -0.2089
vn -0.1094 -0.9718 -0.2089
vn 0.8150 -0.5621 -0.1405
vn -0.8150 -0.5621 -0.1405
vn 0.9358 0.1396 -0.3236
vn -0.9358 0.1396 -0.3236
vn 0.1132 -0.0274 -0.9932
vn -0.1132 -0.0274 -0.9932
vn -0.1497 -0.3635 -0.9195
vn -0.1211 -0.0530 -0.9912
vn 0.3706 -0.6780 -0.6349
vn -0.9094 0.1371 -0.3927
vn 0.9193 0.1393 -0.3682
vn -0.9193 0.1393 -0.3682
vn 0.9457 0.2673 -0.1850
vn -0.9173 0.3440 -0.2007
vn 0.9337 0.2813 -0.2215
vn -0.9004 0.3642 -0.2380
vn 0.9501 0.2455 -0.1922
vn -0.8945 0.4337 0.1084
vn 0.1835 -0.7864 -0.5898
vn -0.1596 -0.9577 -0.2394
vn 0.3727 -0.4759 -0.7966
vn -0.3693 -0.4712 -0.8010
vn 0.3263 -0.8342 -0.4446
vn -0.2986 -0.8236 -0.4821
vn 0.2620 -0.9574 -0.1217
vn -0.2620 -0.9574 -0.1217
vn 0.2996 -0.9443 -0.1362
vn -0.2996 -0.9443 -0.1362
vn 0.8642 -0.4737 0.1696
vn -0.8305 0.3333 -0.4463
vn 0.6869 -0.6358 0.3521
vn -0.6869 -0.6358 0.3521
vn 0.4189 -0.2265 -0.8793
vn -0.2950 -0.0454 -0.9544
vn 0.1119 0.9626 0.2468
vn -0.1272 0.9658 0.2260
vn 0.1208 0.9734 -0.1947
vn -0.1208 0.9734 -0.1947
vn 0.3140 0.5711 -0.7585
vn -0.3140 0.5711 -0.7585
vn 0.3231 0.9288 -0.1817
vn -0.3231 0.9288 -0.1817
vn 0.0452 0.7955 0.6043
vn -0.0452 0.7955 0.6043
vn 0.6144 0.7696 0.1738
vn -0.6144 0.7696 0.1738
vn 0.6935 0.6857 -0.2212
vn -0.6935 0.6857 -0.2212
vn 0.6304 0.2517 -0.7343
vn -0.7104 0.1364 -0.6904
vn 0.3179 0.5704 -0.7574
vn -0.3179 0.5704 -0.7574
vn 0.6289 0.7624 -0.1525
vn -0.6289 0.7624 -0.1525
vn 0.7088 0.6833 0.1752
vn -0.7088 0.6833 0.1752
vn 0.6885 0.3830 0.6158
vn -0.6885 0.3830 0.6158
vn 0.3238 0.9434 -0.0720
vn -0.3669 0.8840 -0.2898
vn 0.1548 0.5080 0.8473
vn -0.2854 0.6237 0.7277
vn -0.1819 0.1145 -0.9766
vn 0.1819 0.1145 -0.9766
vn -0.2638 0.9462 -0.1871
vn 0.2638 0.9462 -0.1871
vn 0.9340 0.2255 0.2773
vn -0.8681 0.0893 -0.4883
vn 0.9758 0.1241 0.1800
vn -0.9758 0.1241 0.1800
vn 0.9613 0.1472 -0.2330
vn -0.9613 0.1472 -0.2330
vn 0.9956 0.0893 -0.0288
vn -0.9817 -0.0304 -0.1882
vn 0.6374 -0.7651 0.0915
vn -0.7466 -0.6646 0.0285
vn 0.3720 -0.9244 0.0845
vn -0.3723 -0.9243 0.0847
vn 0.5281 -0.8354 0.1522
vn -0.5281 -0.8354 0.1522
vn 0.3070 -0.5237 0.7946
vn -0.3070 -0.5237 0.7946
vn 0.5236 -0.3290 -0.7859
vn -0.5881 -0.3070 -0.7483
vn 0.5396 -0.3343 -0.7727
vn -0.4694 -0.2400 -0.8498
vn 0.2144 -0.8341 -0.5082
vn -0.4463 -0.8452 -0.2941
vn 0.7365 -0.6154 -0.2808
vn -0.6973 -0.6610 -0.2771
vn 0.3244 0.4867 0.8111
vn -0.3691 0.2855 0.8844
vn 0.4649 0.2593 0.8465
vn -0.4649 0.2593 0.8465
vn 0.1817 -0.0079 0.9833
vn -0.3188 0.1993 0.9266
vn 0.2925 -0.0758 0.9533
vn -0.2076 -0.0836 0.9746
vn 0.5847 -0.2198 0.7809
vn -0.3398 0.0824 0.9369
vn 0.6509 -0.1939 0.7340
vn -0.6509 -0.1939 0.7340
vn 0.4075 0.7506 0.5201
vn -0.4075 0.7506 0.5201
vn -0.2655 0.8296 0.4911
vn 0.2655 0.8296 0.4911
vn -0.7885 0.2366 0.5677
vn 0.8576 0.2223 0.4637
vn -0.5242 -0.3548 0.7742
vn 0.5257 -0.3579 0.7717
vn 0.4390 -0.5252 0.7290
vn -0.4663 -0.5991 0.6509
vn 0.6888 -0.4428 0.5740
vn -0.6888 -0.4428 0.5740
vn 0.6302 -0.7658 0.1282
vn -0.7507 -0.6131 -0.2461
vn -0.2175 0.2733 0.9370
vn 0.1788 0.2923 0.9395
vn 0.9046 -0.3869 -0.1792
vn -0.9046 -0.3869 -0.1792
vn 0.1782 -0.0891 0.9800
vn -0.1782 -0.0891 0.9800
vn -0.2335 0.8972 0.3749
vn 0.2335 0.8972 0.3749
vn 0.7177 0.1689 0.6755
vn -0.4480 -0.4480 0.7737
vn 0.5313 0.5844 0.6134
vn -0.5313 0.5844 0.6134
vn 0.9008 -0.4075 0.1501
vn -0.5534 -0.5534 0.6225
vn 0.5815 -0.5217 0.6243
vn -0.5724 -0.3122 0.7582
vn 0.6138 -0.2571 0.7465
vn -0.5597 -0.5533 0.6169
vn 0.8779 -0.4788 0.0076
vn -0.8779 -0.4788 0.0076
vn 0.8717 -0.4446 -0.2063
vn -0.9227 -0.3765 -0.0825
vn 0.7661 -0.6363 0.0909
vn -0.7661 -0.6363 0.0909
vn 0.7930 -0.5947 0.1322
vn -0.7815 -0.6176 0.0882
vn 0.2408 0.9631 -0.1204
vn -0.1240 0.9921 0.0207
vn 0.9251 0.3469 0.1542
vn -0.9435 0.3145 0.1048
vn 0.7071 -0.7071 -0.0000
vn -0.7071 -0.7071 -0.0000
vn -0.0157 0.9898 0.1414
vn 0.0157 0.9898 0.1414
vn 0.6266 -0.7211 0.2956
vn -0.6266 -0.7211 0.2956
vn 0.2714 -0.9022 0.3353
vn -0.2714 -0.9022 0.3353
vn -0.8651 -0.4853 -0.1266
vn 0.8651 -0.4853 -0.1266
vn -0.8538 0.2328 -0.4657
vn 0.8096 0.2429 -0.5343
vn -0.5433 0.6985 -0.4657
vn 0.5621 0.8231 -0.0803
vn -0.1096 0.9939 -0.0157
vn 0.0071 0.9899 0.1414
vn 0.1738 0.0097 0.9847
vn -0.1046 0.0392 0.9937
vn 0.4134 0.0413 0.9096
vn -0.2461 0.0852 0.9655
vn 0.3228 -0.0461 0.9453
vn -0.3228 -0.0461 0.9453
vn 0.1220 0.0458 0.9915
vn -0.2104 0.0124 0.9775
vn 0.5679 0.1916 0.8005
vn -0.5679 0.1916 0.8005
vn 0.4244 -0.0320 0.9049
vn -0.3787 -0.0364 0.9248
vn 0.2570 0.0723 0.9637
vn -0.2530 -0.1897 0.9487
vn 0.1351 -0.0225 0.9906
vn -0.1351 -0.0225 0.9906
vn -0.2981 0.7454 0.5963
vn 0.4870 0.6088 0.6262
vn 0.5571 -0.1486 0.8171
vn -0.5571 -0.1486 0.8171
vn 0.4723 -0.1986 0.8588
vn -0.4388 -0.2008 0.8759
vn 0.2975 -0.4062 0.8640
vn -0.5786 -0.1334 0.8046
vn 0.5771 0.2164 0.7875
vn -0.5771 0.2164 0.7875
vn 0.0931 -0.9932 -0.0692
vn -0.0931 -0.9932 -0.0692
vn 0.5161 -0.8527 -0.0812
vn -0.5161 -0.8527 -0.0812
vn 0.9264 -0.2460 0.2851
vn -0.9309 -0.2541 0.2624
vn 0.8267 0.5627 -0.0035
vn -0.8465 0.5291 -0.0595
vn -0.2146 0.9243 -0.3157
vn 0.2511 0.9439 -0.2145
vn -0.4196 0.8851 -0.2012
vn 0.4841 0.8743 -0.0361
vn -0.5470 -0.0144 -0.8370
vn 0.5256 -0.0030 -0.8507
vn -0.2556 -0.0749 -0.9639
vn 0.2556 -0.0749 -0.9639
vn -0.7330 0.6786 0.0472
vn 0.8073 0.5901 0.0041
vn 0.6844 -0.1711 -0.7088
vn -0.6844 -0.1711 -0.7088
vn -0.3604 -0.8283 -0.4290
vn 0.3604 -0.8283 -0.4290
vt 0.843250 0.588863
vt 0.794218 0.611927
vt 0.815334 0.560948
vt 0.866314 0.937441
vt 0.889378 0.888409
vt 0.917293 0.916324
vt 0.746541 0.611927
vt 0.781622 0.527235
vt 0.866314 0.985118
vt 0.951006 0.950037
vt 0.781622 0.696619
vt 0.781622 0.950037
vt 0.833697 0.611927
vt 0.815334 0.662907
vt 0.815334 0.916325
vt 0.866314 0.897962
vt 0.843250 0.634991
vt 0.866314 0.684023
vt 0.794218 0.865345
vt 0.843250 0.888409
vt 0.866314 0.731700
vt 0.746541 0.865345
vt 0.917293 0.662907
vt 0.815334 0.814366
vt 0.781622 0.780653
vt 0.866314 0.644544
vt 0.833697 0.865345
vt 0.889378 0.634991
vt 0.938410 0.611927
vt 0.866314 0.793249
vt 0.843250 0.842281
vt 0.951006 0.696619
vt 0.866314 0.745572
vt 0.917294 0.560947
vt 0.986087 0.611927
vt 0.917294 0.814365
vt 0.951006 0.780653
vt 0.889378 0.588863
vt 0.898931 0.611927
vt 0.889378 0.842281
vt 0.866314 0.579310
vt 0.898931 0.865345
vt 0.938410 0.865345
vt 0.866314 0.539831
vt 0.951006 0.527235
vt 0.986087 0.865345
vt 0.866314 0.492154
vt 0.847600 0.593213
vt 0.885028 0.884059
vt 0.892780 0.865345
vt 0.866314 0.585461
vt 0.885028 0.846631
vt 0.885028 0.593213
vt 0.866314 0.832728
vt 0.866314 0.838879
vt 0.892780 0.611927
vt 0.847600 0.846631
vt 0.866314 0.638393
vt 0.885028 0.630641
vt 0.839848 0.865345
vt 0.847600 0.630641
vt 0.847600 0.884059
vt 0.839848 0.611927
vt 0.866314 0.891811
vt 0.866314 0.611927
vt 0.866314 0.865345
vt 0.517028 0.068490
vt 0.500000 0.054411
vt 0.520711 0.060503
vt 0.482972 0.068490
vt 0.500000 0.064527
vt 0.522612 0.070678
vt 0.530457 0.065062
vt 0.477388 0.070678
vt 0.479289 0.060503
vt 0.532878 0.067822
vt 0.467122 0.067822
vt 0.469543 0.065062
vt 0.544695 0.083023
vt 0.526301 0.079422
vt 0.473699 0.079422
vt 0.455305 0.083023
vt 0.565647 0.115495
vt 0.529228 0.091098
vt 0.470772 0.091098
vt 0.434353 0.115495
vt 0.586916 0.172042
vt 0.600470 0.238288
vt 0.535885 0.215568
vt 0.399530 0.238288
vt 0.413084 0.172042
vt 0.464115 0.215568
vt 0.650908 0.240294
vt 0.626605 0.208159
vt 0.349092 0.240294
vt 0.363038 0.261221
vt 0.655896 0.284413
vt 0.636962 0.261221
vt 0.344104 0.284413
vt 0.684517 0.317795
vt 0.689501 0.268805
vt 0.315483 0.317795
vt 0.340493 0.313152
vt 0.671357 0.334694
vt 0.659507 0.313152
vt 0.328643 0.334694
vt 0.350893 0.322437
vt 0.636775 0.370732
vt 0.649107 0.322437
vt 0.363225 0.370732
vt 0.386364 0.353108
vt 0.594178 0.371277
vt 0.613636 0.353108
vt 0.405822 0.371277
vt 0.581044 0.398468
vt 0.602261 0.395588
vt 0.418956 0.398468
vt 0.422649 0.373341
vt 0.532016 0.387365
vt 0.577351 0.373341
vt 0.467984 0.387365
vt 0.460183 0.354339
vt 0.500000 0.382860
vt 0.539817 0.354339
vt 0.500000 0.340417
vt 0.579057 0.335646
vt 0.559135 0.334326
vt 0.420943 0.335646
vt 0.592090 0.332885
vt 0.606163 0.325516
vt 0.407910 0.332885
vt 0.628251 0.311636
vt 0.393837 0.325516
vt 0.635551 0.300507
vt 0.371749 0.311636
vt 0.631484 0.283889
vt 0.364449 0.300507
vt 0.611331 0.264411
vt 0.368516 0.283889
vt 0.592372 0.254897
vt 0.388669 0.264411
vt 0.559669 0.267717
vt 0.407628 0.254897
vt 0.500000 0.252445
vt 0.440331 0.267717
vt 0.544001 0.314523
vt 0.455999 0.314523
vt 0.500000 0.295691
vt 0.543637 0.293371
vt 0.456363 0.293371
vt 0.550878 0.277832
vt 0.449122 0.277832
vt 0.506819 0.075382
vt 0.493181 0.075382
vt 0.511782 0.080633
vt 0.488218 0.080633
vt 0.512172 0.093457
vt 0.537536 0.127779
vt 0.513874 0.097191
vt 0.486126 0.097191
vt 0.462464 0.127779
vt 0.487828 0.093457
vt 0.500000 0.157864
vt 0.514257 0.133422
vt 0.520226 0.164615
vt 0.485743 0.133422
vt 0.500000 0.134352
vt 0.500000 0.100063
vt 0.500000 0.091346
vt 0.530258 0.180239
vt 0.517666 0.172353
vt 0.482334 0.172353
vt 0.469742 0.180239
vt 0.479774 0.164615
vt 0.523673 0.198817
vt 0.521901 0.181560
vt 0.478099 0.181560
vt 0.476327 0.198817
vt 0.508211 0.197295
vt 0.500000 0.203867
vt 0.491789 0.197295
vt 0.481043 0.194728
vt 0.500000 0.192167
vt 0.500000 0.197278
vt 0.500000 0.165170
vt 0.500000 0.171718
vt 0.486462 0.176949
vt 0.508818 0.192407
vt 0.491182 0.192407
vt 0.515232 0.190709
vt 0.518957 0.194728
vt 0.484768 0.190709
vt 0.483092 0.181873
vt 0.513538 0.176949
vt 0.516908 0.181873
vt 0.500000 0.186182
vt 0.544209 0.172814
vt 0.455791 0.172814
vt 0.458673 0.154899
vt 0.541327 0.154899
vt 0.578661 0.139176
vt 0.421339 0.139176
vt 0.583245 0.154155
vt 0.416755 0.154155
vt 0.509911 0.090724
vt 0.490089 0.090724
vt 0.500000 0.089977
vt 0.509713 0.082236
vt 0.490287 0.082236
vt 0.505196 0.077083
vt 0.494804 0.077083
vt 0.500000 0.073497
vt 0.500000 0.075473
vt 0.500000 0.080320
vt 0.496555 0.080840
vt 0.506660 0.083289
vt 0.503445 0.080840
vt 0.493340 0.083289
vt 0.506822 0.086791
vt 0.493178 0.086791
vt 0.500000 0.085637
vt 0.562361 0.284338
vt 0.559190 0.294882
vt 0.437639 0.284338
vt 0.440810 0.294882
vt 0.563180 0.307151
vt 0.436820 0.307151
vt 0.570458 0.318697
vt 0.429542 0.318697
vt 0.430757 0.278245
vt 0.589914 0.271772
vt 0.569243 0.278245
vt 0.410086 0.271772
vt 0.602190 0.277180
vt 0.397810 0.277180
vt 0.617110 0.287175
vt 0.382890 0.287175
vt 0.618074 0.299197
vt 0.381926 0.299197
vt 0.384129 0.307438
vt 0.615871 0.307438
vt 0.401576 0.313725
vt 0.590828 0.319797
vt 0.598424 0.313725
vt 0.409172 0.319797
vt 0.582130 0.320991
vt 0.417870 0.320991
vt 0.583998 0.312892
vt 0.416002 0.312892
vt 0.421385 0.309394
vt 0.589656 0.312336
vt 0.410344 0.312336
vt 0.596347 0.309249
vt 0.403653 0.309249
vt 0.606014 0.302517
vt 0.393986 0.302517
vt 0.607735 0.297520
vt 0.392265 0.297520
vt 0.606985 0.291216
vt 0.393015 0.291216
vt 0.598275 0.283083
vt 0.401725 0.283083
vt 0.589866 0.280167
vt 0.410134 0.280167
vt 0.576352 0.284624
vt 0.423648 0.284624
vt 0.572831 0.289915
vt 0.427169 0.289915
vt 0.573307 0.303342
vt 0.578615 0.309394
vt 0.426693 0.303342
vt 0.572447 0.295716
vt 0.427553 0.295716
vt 0.529647 0.428636
vt 0.500000 0.428636
vt 0.470353 0.428636
vt 0.584616 0.428636
vt 0.415384 0.428636
vt 0.397739 0.395588
vt 0.377699 0.417889
vt 0.622301 0.417889
vt 0.333786 0.388954
vt 0.666214 0.388954
vt 0.298519 0.344467
vt 0.712163 0.315527
vt 0.701481 0.344467
vt 0.287837 0.315527
vt 0.310499 0.268805
vt 0.295695 0.260225
vt 0.672947 0.224880
vt 0.704305 0.260225
vt 0.327053 0.224880
vt 0.640497 0.198841
vt 0.359503 0.198841
vt 0.625128 0.029461
vt 0.598617 0.056841
vt 0.603553 0.023452
vt 0.374872 0.029461
vt 0.401383 0.056841
vt 0.364247 0.082198
vt 0.556354 0.040906
vt 0.546781 0.009442
vt 0.396447 0.023452
vt 0.443646 0.040906
vt 0.527159 0.049514
vt 0.500000 0.033223
vt 0.453219 0.009442
vt 0.472841 0.049514
vt 0.537222 0.060794
vt 0.462778 0.060794
vt 0.558499 0.065137
vt 0.441501 0.065137
vt 0.588127 0.085177
vt 0.411873 0.085177
vt 0.635753 0.082198
vt 0.607239 0.113940
vt 0.392761 0.113940
vt 0.612663 0.133675
vt 0.387337 0.133675
vt 0.394533 0.151503
vt 0.600708 0.162985
vt 0.399292 0.162985
vt 0.373395 0.208159
vt 0.859647 0.117994
vt 0.861342 0.027230
vt 0.922374 0.064228
vt 0.140353 0.117994
vt 0.138658 0.027230
vt 0.176713 0.101559
vt 0.823287 0.101559
vt 0.774604 0.010837
vt 0.225396 0.010837
vt 0.234137 0.087001
vt 0.661952 0.087561
vt 0.647010 0.028716
vt 0.338048 0.087561
vt 0.352990 0.028716
vt 0.743592 0.198572
vt 0.766410 0.233065
vt 0.256408 0.198572
vt 0.233590 0.233065
vt 0.889478 0.177602
vt 0.987633 0.154243
vt 0.110522 0.177602
vt 0.077626 0.064228
vt 0.844317 0.347370
vt 0.958963 0.357385
vt 0.899807 0.420886
vt 0.155683 0.347370
vt 0.041037 0.357385
vt 0.118831 0.309153
vt 0.903302 0.261367
vt 0.999860 0.253531
vt 0.096698 0.261367
vt 0.000140 0.253531
vt 0.012367 0.154243
vt 0.724763 0.340212
vt 0.744725 0.304629
vt 0.766113 0.319494
vt 0.255275 0.304629
vt 0.275237 0.340212
vt 0.233887 0.319494
vt 0.793427 0.280495
vt 0.826663 0.297810
vt 0.206573 0.280495
vt 0.173337 0.297810
vt 0.823620 0.254612
vt 0.855331 0.267956
vt 0.176380 0.254612
vt 0.144669 0.267956
vt 0.835860 0.225225
vt 0.868309 0.233525
vt 0.164140 0.225225
vt 0.131691 0.233525
vt 0.851288 0.181145
vt 0.813499 0.190705
vt 0.148712 0.181145
vt 0.881169 0.309153
vt 0.772263 0.374010
vt 0.744519 0.390057
vt 0.227737 0.374010
vt 0.824765 0.470987
vt 0.100193 0.420886
vt 0.792141 0.464714
vt 0.726855 0.432574
vt 0.273145 0.432574
vt 0.207859 0.464714
vt 0.255481 0.390057
vt 0.175235 0.470987
vt 0.795638 0.489991
vt 0.204362 0.489991
vt 0.786137 0.227788
vt 0.213863 0.227788
vt 0.802950 0.203415
vt 0.197050 0.203415
vt 0.765863 0.087001
vt 0.691484 0.146686
vt 0.308516 0.146686
vt 0.230666 0.128771
vt 0.780113 0.169386
vt 0.219887 0.169386
vt 0.605467 0.151503
vt 0.803789 0.171181
vt 0.196211 0.171181
vt 0.169083 0.139518
vt 0.769334 0.128771
vt 0.830917 0.139518
vt 0.464516 0.959188
vt 0.545439 0.884582
vt 0.574628 0.959188
vt 0.285710 0.959188
vt 0.204787 0.884582
vt 0.272900 0.891852
vt 0.605134 0.846978
vt 0.715894 0.897069
vt 0.145092 0.846978
vt 0.175598 0.959188
vt 0.034332 0.897069
vt 0.683874 0.757011
vt 0.066352 0.757011
vt 0.144866 0.784410
vt 0.605360 0.784410
vt 0.617867 0.719156
vt 0.132359 0.719156
vt 0.175391 0.744212
vt 0.574835 0.744212
vt 0.568728 0.682132
vt 0.181498 0.682132
vt 0.215230 0.712528
vt 0.483006 0.686791
vt 0.508539 0.641024
vt 0.267220 0.686791
vt 0.241687 0.641024
vt 0.534996 0.712528
vt 0.478880 0.719593
vt 0.271346 0.719593
vt 0.513415 0.736977
vt 0.236811 0.736977
vt 0.557599 0.789442
vt 0.192627 0.789442
vt 0.209109 0.760754
vt 0.553841 0.821849
vt 0.196385 0.821849
vt 0.524671 0.842380
vt 0.225555 0.842380
vt 0.485193 0.845321
vt 0.265033 0.845321
vt 0.770208 0.191225
vt 0.229792 0.191225
vt 0.213850 0.181127
vt 0.409610 0.674022
vt 0.408153 0.587507
vt 0.340616 0.674022
vt 0.400301 0.910556
vt 0.477326 0.891852
vt 0.349925 0.910556
vt 0.443630 0.713731
vt 0.306596 0.713731
vt 0.392812 0.710774
vt 0.429725 0.728622
vt 0.357414 0.710774
vt 0.422979 0.754609
vt 0.432640 0.746527
vt 0.320501 0.728622
vt 0.327247 0.754609
vt 0.317586 0.746527
vt 0.391578 0.815187
vt 0.427719 0.796173
vt 0.358648 0.815187
vt 0.448277 0.830976
vt 0.414155 0.878318
vt 0.301949 0.830976
vt 0.322507 0.796173
vt 0.336071 0.878318
vt 0.802580 0.199758
vt 0.197420 0.199758
vt 0.797710 0.195652
vt 0.202290 0.195652
vt 0.210391 0.184671
vt 0.786150 0.181127
vt 0.789609 0.184671
vt 0.466042 0.804091
vt 0.490498 0.816075
vt 0.284184 0.804091
vt 0.259728 0.816075
vt 0.302184 0.783921
vt 0.438745 0.764960
vt 0.448042 0.783921
vt 0.311481 0.764960
vt 0.305010 0.756351
vt 0.445216 0.756351
vt 0.300407 0.743458
vt 0.456307 0.732687
vt 0.449819 0.743458
vt 0.293919 0.732687
vt 0.475471 0.740871
vt 0.274755 0.740871
vt 0.514211 0.817769
vt 0.236015 0.817769
vt 0.527961 0.808598
vt 0.222265 0.808598
vt 0.530079 0.790754
vt 0.220147 0.790754
vt 0.518620 0.772385
vt 0.541117 0.760754
vt 0.231606 0.772385
vt 0.498668 0.755033
vt 0.251558 0.755033
vt 0.459660 0.770459
vt 0.290566 0.770459
vt 0.282197 0.756171
vt 0.468029 0.756171
vt 0.477354 0.785393
vt 0.272872 0.785393
vt 0.263059 0.769899
vt 0.504617 0.782999
vt 0.496545 0.797122
vt 0.245609 0.782999
vt 0.253681 0.797122
vt 0.513713 0.804019
vt 0.236513 0.804019
vt 0.234089 0.792591
vt 0.516137 0.792591
vt 0.574269 0.607668
vt 0.613510 0.655816
vt 0.175957 0.607668
vt 0.136716 0.655816
vt 0.644031 0.693270
vt 0.106195 0.693270
vt 0.668163 0.712097
vt 0.082063 0.712097
vt 0.676584 0.686010
vt 0.727131 0.698475
vt 0.073642 0.686010
vt 0.667013 0.640198
vt 0.729804 0.624370
vt 0.023095 0.698475
vt 0.083213 0.640198
vt 0.648152 0.594596
vt 0.721292 0.572934
vt 0.020422 0.624370
vt 0.102074 0.594596
vt 0.717709 0.538143
vt 0.630034 0.557583
vt 0.032517 0.538143
vt 0.028934 0.572934
vt 0.526877 0.539235
vt 0.120192 0.557583
vt 0.223349 0.539235
vt 0.342073 0.587507
vt 0.440865 0.334326
vt 0.186501 0.190705
vt 0.742181 0.461543
vt 0.257819 0.461543
vt 0.487167 0.769899
s 0
usemtl Material.001
f 80/66/34 36/67/34 78/68/34
f 37/69/35 81/70/35 79/71/35
f 78/68/36 38/72/36 76/73/36
f 39/74/37 79/71/37 77/75/37
f 36/67/38 40/76/38 38/72/38
f 41/77/39 37/69/39 39/74/39
f 34/78/40 42/79/40 36/67/40
f 43/80/41 35/81/41 37/69/41
f 44/82/42 48/83/42 42/79/42
f 49/84/43 45/85/43 43/80/43
f 42/79/44 50/86/44 40/76/44
f 51/87/45 43/80/45 41/77/45
f 54/88/46 50/86/46 48/83/46
f 55/89/47 51/87/47 53/90/47
f 46/91/48 54/88/48 48/83/48
f 55/89/49 47/92/49 49/84/49
f 56/93/50 60/94/50 54/88/50
f 61/95/51 57/96/51 55/89/51
f 60/94/52 52/97/52 54/88/52
f 61/95/53 53/90/53 63/98/53
f 66/99/54 62/100/54 60/94/54
f 67/101/55 63/98/55 65/102/55
f 68/103/56 60/94/56 58/104/56
f 69/105/57 61/95/57 67/101/57
f 70/106/58 66/99/58 68/103/58
f 71/107/59 67/101/59 73/108/59
f 72/109/60 64/110/60 66/99/60
f 73/108/61 65/102/61 75/111/61
f 78/68/62 74/112/62 72/109/62
f 79/71/63 75/111/63 77/75/63
f 80/66/64 72/109/64 70/106/64
f 81/70/65 73/108/65 79/71/65
f 70/106/66 82/113/66 80/66/66
f 71/107/67 83/114/67 85/115/67
f 68/103/68 84/116/68 70/106/68
f 69/105/69 85/115/69 87/117/69
f 58/104/70 86/118/70 68/103/70
f 59/119/71 87/117/71 89/120/71
f 56/93/72 88/121/72 58/104/72
f 57/96/73 89/120/73 91/122/73
f 56/93/74 92/123/74 90/124/74
f 93/125/75 57/96/75 91/122/75
f 46/91/76 96/126/76 92/123/76
f 97/127/77 47/92/77 93/125/77
f 44/82/78 98/128/78 96/126/78
f 99/129/79 45/85/79 97/127/79
f 34/78/80 82/113/80 98/128/80
f 83/114/81 35/81/81 99/129/81
f 94/130/82 98/128/82 82/113/82
f 83/114/83 99/129/83 95/131/83
f 96/126/84 98/128/84 94/130/84
f 95/131/85 99/129/85 97/127/85
f 94/130/86 92/123/86 96/126/86
f 97/127/87 93/125/87 95/131/87
f 94/130/88 90/124/88 92/123/88
f 93/125/89 91/122/89 95/131/89
f 94/130/90 88/121/90 90/124/90
f 91/122/91 89/120/91 95/131/91
f 94/130/92 86/118/92 88/121/92
f 89/120/93 87/117/93 95/131/93
f 94/130/94 84/116/94 86/118/94
f 87/117/95 85/115/95 95/131/95
f 94/130/96 82/113/96 84/116/96
f 85/115/97 83/114/97 95/131/97
f 207/132/98 124/133/98 122/134/98
f 208/135/99 124/133/99 209/136/99
f 205/137/100 122/134/100 120/138/100
f 206/139/101 123/140/101 208/135/101
f 118/141/102 205/137/102 120/138/102
f 206/139/103 119/142/103 121/143/103
f 116/144/104 203/145/104 118/141/104
f 204/146/105 117/147/105 119/142/105
f 114/148/106 201/149/106 116/144/106
f 202/150/107 115/151/107 117/147/107
f 112/152/108 179/153/108 197/154/108
f 180/155/109 113/156/109 198/157/109
f 127/158/110 179/153/110 125/159/110
f 128/160/111 180/155/111 182/161/111
f 127/158/112 183/162/112 181/163/112
f 184/164/113 128/160/113 182/161/113
f 131/165/114 183/162/114 129/166/114
f 132/167/115 184/164/115 186/168/115
f 133/169/116 185/170/116 131/165/116
f 134/171/117 186/168/117 188/172/117
f 135/173/118 187/174/118 133/169/118
f 136/175/119 188/172/119 190/176/119
f 135/173/120 191/177/120 189/178/120
f 192/179/121 136/175/121 190/176/121
f 139/180/122 191/177/122 137/181/122
f 140/182/123 192/179/123 194/183/123
f 141/184/124 193/185/124 139/180/124
f 142/186/125 194/183/125 196/187/125
f 100/188/126 195/189/126 141/184/126
f 100/188/127 196/187/127 101/190/127
f 161/191/128 195/189/128 143/192/128
f 162/193/129 196/187/129 194/183/129
f 161/191/130 191/177/130 193/185/130
f 192/179/131 162/193/131 194/183/131
f 189/178/132 212/194/132 159/195/132
f 190/176/133 213/196/133 192/179/133
f 187/174/134 159/195/134 157/197/134
f 188/172/135 160/198/135 190/176/135
f 185/170/136 157/197/136 155/199/136
f 186/168/137 158/200/137 188/172/137
f 183/162/138 155/199/138 153/201/138
f 184/164/139 156/202/139 186/168/139
f 181/163/140 153/201/140 151/203/140
f 182/161/141 154/204/141 184/164/141
f 179/153/142 151/203/142 149/205/142
f 180/155/143 152/206/143 182/161/143
f 197/154/144 149/205/144 147/207/144
f 198/157/145 150/208/145 180/155/145
f 147/207/146 210/209/146 197/154/146
f 210/209/147 148/210/147 198/157/147
f 195/189/148 145/211/148 143/192/148
f 196/187/149 146/212/149 101/190/149
f 145/211/150 211/213/150 216/214/150
f 211/213/151 146/212/151 217/215/151
f 214/216/152 211/213/152 210/209/152
f 215/217/153 211/213/153 217/215/153
f 168/218/154 209/136/154 207/132/154
f 209/136/155 169/219/155 208/135/155
f 166/220/156 207/132/156 205/137/156
f 208/135/157 167/221/157 206/139/157
f 166/220/158 203/145/158 164/222/158
f 167/221/159 204/146/159 206/139/159
f 199/223/160 218/224/160 201/149/160
f 219/225/161 200/226/161 202/150/161
f 164/222/162 201/149/162 218/224/162
f 202/150/163 165/227/163 219/225/163
f 223/228/164 220/229/164 177/230/164
f 223/228/165 221/231/165 222/232/165
f 220/229/166 102/233/166 218/224/166
f 221/231/167 102/233/167 222/232/167
f 164/222/168 102/233/168 163/234/168
f 165/227/168 102/233/168 219/225/168
f 175/235/169 224/236/169 177/230/169
f 225/237/170 176/238/170 178/239/170
f 173/240/171 226/241/171 175/235/171
f 227/242/172 174/243/172 176/238/172
f 230/244/173 173/240/173 172/245/173
f 231/246/174 174/243/174 229/247/174
f 104/248/175 172/245/175 171/249/175
f 104/248/176 172/245/176 231/246/176
f 177/230/177 103/250/177 223/228/177
f 178/239/178 103/250/178 225/237/178
f 224/236/179 241/251/179 103/250/179
f 225/237/180 241/251/180 240/252/180
f 104/248/181 233/253/181 230/244/181
f 234/254/182 104/248/182 231/246/182
f 230/244/183 235/255/183 228/256/183
f 236/257/184 231/246/184 229/247/184
f 235/255/185 226/241/185 228/256/185
f 236/257/186 227/242/186 238/258/186
f 226/241/187 239/259/187 224/236/187
f 240/252/188 227/242/188 225/237/188
f 237/260/189 233/253/189 232/261/189
f 238/258/190 234/254/190 236/257/190
f 232/261/191 239/259/191 237/260/191
f 240/252/192 232/261/192 238/258/192
f 172/245/193 197/154/193 210/209/193
f 198/157/194 172/245/194 210/209/194
f 173/240/195 244/262/195 197/154/195
f 245/263/196 174/243/196 198/157/196
f 177/230/197 244/262/197 175/235/197
f 178/239/198 245/263/198 247/264/198
f 220/229/199 246/265/199 177/230/199
f 221/231/200 247/264/200 200/226/200
f 242/266/201 199/223/201 114/148/201
f 243/267/202 200/226/202 247/264/202
f 248/268/203 246/265/203 242/266/203
f 249/269/204 247/264/204 245/263/204
f 112/152/205 244/262/205 248/268/205
f 245/263/206 113/156/206 249/269/206
f 163/234/207 255/270/207 164/222/207
f 163/234/208 256/271/208 105/272/208
f 166/220/209 255/270/209 253/273/209
f 256/271/210 167/221/210 254/274/210
f 168/218/211 253/273/211 251/275/211
f 254/274/212 169/219/212 252/276/212
f 170/277/168 251/275/168 250/278/168
f 252/276/168 170/277/168 250/278/168
f 251/275/213 264/279/213 250/278/213
f 252/276/214 264/279/214 263/280/214
f 251/275/215 260/281/215 262/282/215
f 261/283/216 252/276/216 263/280/216
f 253/273/175 258/284/175 260/281/175
f 259/285/217 254/274/217 261/283/217
f 105/272/218 258/284/218 255/270/218
f 105/272/219 259/285/219 257/286/219
f 257/286/220 262/282/220 258/284/220
f 263/280/221 257/286/221 259/285/221
f 258/284/222 262/282/222 260/281/222
f 261/283/223 263/280/223 259/285/223
f 216/214/224 267/287/224 265/288/224
f 268/289/225 217/215/225 266/290/225
f 145/211/226 265/288/226 287/291/226
f 266/290/227 146/212/227 288/292/227
f 145/211/228 289/293/228 143/192/228
f 146/212/229 290/294/229 288/292/229
f 147/207/230 267/287/230 214/216/230
f 148/210/231 268/289/231 286/295/231
f 147/207/232 283/296/232 285/297/232
f 284/298/233 148/210/233 286/295/233
f 149/205/234 281/299/234 283/296/234
f 282/300/235 150/208/235 284/298/235
f 151/203/236 279/301/236 281/299/236
f 280/302/237 152/206/237 282/300/237
f 153/201/238 277/303/238 279/301/238
f 278/304/239 154/204/239 280/302/239
f 157/197/240 277/303/240 155/199/240
f 158/200/241 278/304/241 276/305/241
f 159/195/242 275/306/242 157/197/242
f 160/198/243 276/305/243 274/307/243
f 159/195/244 269/308/244 273/309/244
f 270/310/245 160/198/245 274/307/245
f 212/194/246 271/311/246 269/308/246
f 272/312/247 213/196/247 270/310/247
f 161/191/248 289/293/248 271/311/248
f 290/294/249 162/193/249 272/312/249
f 289/293/250 309/313/250 271/311/250
f 290/294/251 310/314/251 292/315/251
f 269/308/252 309/313/252 311/316/252
f 310/314/253 270/310/253 312/317/253
f 269/308/254 307/318/254 273/309/254
f 270/310/255 308/319/255 312/317/255
f 273/309/256 305/320/256 275/306/256
f 274/307/257 306/321/257 308/319/257
f 277/303/258 305/320/258 303/322/258
f 306/321/259 278/304/259 304/323/259
f 277/303/260 301/324/260 279/301/260
f 278/304/261 302/325/261 304/323/261
f 281/299/262 301/324/262 299/326/262
f 302/325/263 282/300/263 300/327/263
f 281/299/264 297/328/264 283/296/264
f 282/300/265 298/329/265 300/327/265
f 283/296/266 295/330/266 285/297/266
f 284/298/267 296/331/267 298/329/267
f 267/287/268 295/330/268 313/332/268
f 296/331/269 268/289/269 314/333/269
f 289/293/270 293/334/270 291/335/270
f 294/336/271 290/294/271 292/315/271
f 287/291/272 315/337/272 293/334/272
f 316/338/273 288/292/273 294/336/273
f 265/288/274 313/332/274 315/337/274
f 314/333/275 266/290/275 316/338/275
f 100/188/276 317/339/276 106/340/276
f 318/341/277 100/188/277 106/340/277
f 141/184/278 319/342/278 317/339/278
f 320/343/279 142/186/279 318/341/279
f 137/181/280 319/342/280 139/180/280
f 138/344/281 320/343/281 322/345/281
f 135/173/282 321/346/282 137/181/282
f 136/175/283 322/345/283 324/347/283
f 133/169/284 323/348/284 135/173/284
f 134/171/285 324/347/285 326/349/285
f 133/169/286 327/350/286 325/351/286
f 328/352/287 134/171/287 326/349/287
f 129/166/288 327/350/288 131/165/288
f 130/353/289 328/352/289 330/354/289
f 129/166/290 331/355/290 329/356/290
f 332/357/291 130/353/291 330/354/291
f 127/158/292 333/358/292 331/355/292
f 334/359/293 128/160/293 332/357/293
f 342/360/294 371/361/294 341/362/294
f 342/363/295 372/364/295 362/365/295
f 341/362/296 369/366/296 340/367/296
f 341/368/297 370/369/297 372/364/297
f 340/367/298 373/370/298 339/371/298
f 340/372/299 374/373/299 370/369/299
f 122/134/300 339/371/300 373/370/300
f 339/371/301 123/140/301 374/373/301
f 120/138/302 373/370/302 367/374/302
f 374/373/303 121/143/303 368/375/303
f 118/141/304 367/374/304 363/376/304
f 368/375/305 119/142/305 364/377/305
f 116/144/306 363/376/306 365/378/306
f 364/377/307 117/147/307 366/379/307
f 363/376/308 371/361/308 365/378/308
f 372/364/309 364/377/309 366/379/309
f 367/374/310 369/366/310 363/376/310
f 368/375/311 370/369/311 374/373/311
f 365/378/312 361/380/312 359/381/312
f 366/379/313 362/365/313 372/364/313
f 114/148/314 365/378/314 359/381/314
f 366/379/315 115/151/315 360/382/315
f 375/383/316 248/268/316 242/266/316
f 376/384/317 249/269/317 378/385/317
f 359/381/318 242/266/318 114/148/318
f 360/382/319 243/267/319 376/384/319
f 248/268/320 379/386/320 112/152/320
f 249/269/321 380/387/321 378/385/321
f 379/386/322 125/159/322 112/152/322
f 380/387/323 126/388/323 334/359/323
f 357/389/324 337/390/324 110/391/324
f 358/392/325 337/393/325 386/394/325
f 385/395/326 111/396/326 337/390/326
f 386/394/327 111/397/327 384/398/327
f 111/396/328 381/399/328 338/400/328
f 382/401/329 111/397/329 338/402/329
f 338/400/330 361/380/330 342/360/330
f 362/365/331 338/402/331 342/363/331
f 361/380/332 375/383/332 359/381/332
f 362/365/333 376/384/333 382/401/333
f 329/356/334 351/403/334 343/404/334
f 352/405/335 330/354/335 344/406/335
f 349/407/336 110/391/336 109/408/336
f 350/409/337 110/410/337 358/392/337
f 391/411/338 336/412/338 335/413/338
f 392/414/339 336/415/339 390/416/339
f 336/412/340 387/417/340 108/418/340
f 388/419/341 336/415/341 108/420/341
f 108/418/342 349/407/342 109/408/342
f 350/409/343 108/420/343 109/421/343
f 325/422/344 395/423/344 397/424/344
f 396/425/345 326/426/345 398/427/345
f 397/424/346 401/428/346 399/429/346
f 402/430/347 398/427/347 400/431/347
f 399/429/348 403/432/348 405/433/348
f 404/434/349 400/431/349 406/435/349
f 405/433/350 409/436/350 407/437/350
f 410/438/351 406/435/351 408/439/351
f 411/440/352 409/436/352 347/441/352
f 412/442/353 410/438/353 408/439/353
f 349/407/354 407/437/354 411/440/354
f 408/439/355 350/409/355 412/442/355
f 387/417/356 405/433/356 407/437/356
f 406/435/357 388/419/357 408/439/357
f 389/443/358 399/429/358 405/433/358
f 400/431/359 390/416/359 406/435/359
f 391/411/360 397/424/360 399/429/360
f 398/427/361 392/414/361 400/431/361
f 325/422/362 393/444/362 323/445/362
f 326/426/363 394/446/363 398/427/363
f 393/444/364 335/413/364 107/447/364
f 394/446/365 335/448/365 392/414/365
f 317/449/366 321/450/366 323/445/366
f 322/451/367 318/452/367 324/453/367
f 317/449/368 393/444/368 107/447/368
f 394/446/369 318/452/369 107/454/369
f 106/455/370 317/449/370 107/447/370
f 107/454/371 318/452/371 106/456/371
f 329/356/372 395/423/372 327/350/372
f 330/354/373 396/425/373 344/406/373
f 343/404/374 401/428/374 395/423/374
f 402/430/375 344/406/375 396/425/375
f 345/457/376 403/432/376 401/428/376
f 404/434/377 346/458/377 402/430/377
f 409/436/378 415/459/378 347/441/378
f 410/438/379 416/460/379 404/434/379
f 383/461/380 417/462/380 381/399/380
f 384/398/381 418/463/381 420/464/381
f 417/462/382 353/465/382 351/403/382
f 418/463/383 354/466/383 420/464/383
f 331/355/384 417/462/384 351/403/384
f 418/463/385 332/357/385 352/405/385
f 333/358/386 375/383/386 417/462/386
f 376/384/387 334/359/387 418/463/387
f 375/383/388 381/399/388 417/462/388
f 418/463/389 382/401/389 376/384/389
f 333/358/390 379/386/390 377/467/390
f 378/385/391 380/387/391 334/359/391
f 355/468/392 411/440/392 347/441/392
f 356/469/393 412/442/393 414/470/393
f 411/440/394 357/389/394 349/407/394
f 412/442/395 358/392/395 414/470/395
f 419/471/396 355/468/396 353/465/396
f 420/464/397 356/469/397 414/470/397
f 385/395/398 419/471/398 383/461/398
f 386/394/399 420/464/399 414/470/399
f 357/389/400 413/472/400 385/395/400
f 386/394/401 414/470/401 358/392/401
f 421/473/402 435/474/402 433/475/402
f 422/476/403 436/477/403 448/478/403
f 433/475/404 437/479/404 431/480/404
f 438/481/405 434/482/405 432/483/405
f 437/479/406 429/484/406 431/480/406
f 438/481/407 430/485/407 440/486/407
f 439/487/408 427/488/408 429/484/408
f 440/486/409 428/489/409 442/490/409
f 441/491/410 425/492/410 427/488/410
f 442/490/411 426/493/411 444/494/411
f 425/492/412 445/495/412 423/496/412
f 446/497/413 426/493/413 424/498/413
f 443/499/414 451/500/414 445/495/414
f 452/501/415 444/494/415 446/497/415
f 441/491/416 453/502/416 443/499/416
f 454/503/417 442/490/417 444/494/417
f 457/504/418 441/491/418 439/487/418
f 458/505/419 442/490/419 456/506/419
f 459/507/420 439/487/420 437/479/420
f 460/508/421 440/486/421 458/505/421
f 461/509/422 437/479/422 435/474/422
f 462/510/423 438/481/423 460/508/423
f 435/474/424 449/511/424 461/509/424
f 450/512/425 436/477/425 462/510/425
f 353/465/426 475/513/426 351/403/426
f 354/466/427 476/514/427 478/515/427
f 423/496/428 477/516/428 353/517/428
f 424/498/429 478/518/429 446/497/429
f 343/404/430 475/513/430 345/457/430
f 476/514/431 344/406/431 346/458/431
f 415/519/432 447/520/432 421/473/432
f 448/478/433 416/521/433 422/476/433
f 445/495/434 473/522/434 477/516/434
f 474/523/435 446/497/435 478/518/435
f 479/524/436 473/522/436 471/525/436
f 480/526/437 474/523/437 478/518/437
f 467/527/168 471/525/168 469/528/168
f 472/529/168 468/530/168 470/531/168
f 481/532/438 467/527/438 465/533/438
f 482/534/439 468/530/439 480/526/439
f 481/532/440 483/535/440 463/536/440
f 482/534/441 484/537/441 466/538/441
f 463/536/442 449/511/442 447/520/442
f 464/539/443 450/512/443 484/537/443
f 345/457/444 463/540/444 415/459/444
f 464/541/445 346/458/445 416/460/445
f 475/513/446 481/542/446 345/457/446
f 476/514/447 482/543/447 480/544/447
f 475/513/448 477/545/448 479/546/448
f 480/544/449 478/515/449 476/514/449
f 449/511/450 485/547/450 509/548/450
f 486/549/451 450/512/451 510/550/451
f 465/533/452 485/547/452 483/535/452
f 466/538/453 486/549/453 496/551/453
f 465/533/454 493/552/454 495/553/454
f 494/554/455 466/538/455 496/551/455
f 469/528/456 493/552/456 467/527/456
f 470/531/457 494/554/457 492/555/457
f 471/525/458 491/556/458 469/528/458
f 472/529/459 492/555/459 490/557/459
f 471/525/460 487/558/460 489/559/460
f 488/560/461 472/529/461 490/557/461
f 473/522/462 507/561/462 487/558/462
f 508/562/462 474/523/462 488/560/462
f 461/509/463 509/548/463 497/563/463
f 510/550/464 462/510/464 498/564/464
f 459/507/465 497/563/465 499/565/465
f 498/564/466 460/508/466 500/566/466
f 457/504/467 499/565/467 501/567/467
f 500/566/468 458/505/468 502/568/468
f 457/504/469 503/569/469 455/570/469
f 458/505/470 504/571/470 502/568/470
f 455/570/471 505/572/471 453/502/471
f 456/506/472 506/573/472 504/571/472
f 453/502/473 507/561/473 451/500/473
f 454/503/474 508/562/474 506/573/474
f 489/559/475 511/574/475 491/556/475
f 490/557/476 512/575/476 514/576/476
f 513/577/477 517/578/477 511/574/477
f 514/576/478 518/579/478 516/580/478
f 517/578/479 521/581/479 519/582/479
f 522/583/480 518/579/480 520/584/480
f 521/581/481 525/585/481 519/582/481
f 522/583/482 526/586/482 524/587/482
f 497/563/483 519/582/483 525/585/483
f 520/584/484 498/564/484 526/586/484
f 517/578/485 509/548/485 485/547/485
f 518/579/486 510/550/486 520/584/486
f 495/553/487 517/578/487 485/547/487
f 496/551/488 518/579/488 512/575/488
f 491/556/168 495/553/168 493/552/168
f 496/551/168 492/555/168 494/554/168
f 507/561/489 489/559/489 487/558/489
f 508/562/490 490/557/490 514/576/490
f 505/572/491 513/577/491 507/561/491
f 514/576/492 506/573/492 508/562/492
f 521/581/493 505/572/493 503/569/493
f 522/583/494 506/573/494 516/580/494
f 523/588/495 503/569/495 501/567/495
f 524/587/496 504/571/496 522/583/496
f 499/565/497 523/588/497 501/567/497
f 524/587/498 500/566/498 502/568/498
f 497/563/499 525/585/499 499/565/499
f 500/566/500 526/586/500 498/564/500
f 425/492/501 537/589/501 535/590/501
f 538/591/502 426/493/502 536/592/502
f 427/488/503 535/590/503 533/593/503
f 536/592/504 428/489/504 534/594/504
f 427/488/505 531/595/505 429/484/505
f 428/489/506 532/596/506 534/594/506
f 429/484/507 529/597/507 431/598/507
f 430/485/508 530/599/508 532/596/508
f 431/598/509 527/600/509 433/601/509
f 432/602/510 528/603/510 530/599/510
f 433/601/511 539/604/511 421/605/511
f 434/606/512 540/607/512 528/603/512
f 535/590/513 539/604/513 527/600/513
f 536/592/514 540/607/514 538/591/514
f 527/600/515 533/593/515 535/590/515
f 534/594/516 528/603/516 536/592/516
f 529/597/517 531/595/517 533/593/517
f 534/594/518 532/596/518 530/599/518
f 415/608/519 539/604/519 347/609/519
f 416/610/520 540/607/520 422/611/520
f 347/609/521 537/589/521 355/612/521
f 538/591/522 348/613/522 356/614/522
f 353/517/523 537/589/523 423/496/523
f 538/591/524 354/615/524 424/498/524
f 80/66/525 34/78/525 36/67/525
f 37/69/526 35/81/526 81/70/526
f 78/68/527 36/67/527 38/72/527
f 39/74/528 37/69/528 79/71/528
f 36/67/529 42/79/529 40/76/529
f 41/77/530 43/80/530 37/69/530
f 34/78/531 44/82/531 42/79/531
f 43/80/532 45/85/532 35/81/532
f 44/82/533 46/91/533 48/83/533
f 49/84/534 47/92/534 45/85/534
f 42/79/535 48/83/535 50/86/535
f 51/87/536 49/84/536 43/80/536
f 54/88/537 52/97/537 50/86/537
f 55/89/538 49/84/538 51/87/538
f 46/91/539 56/93/539 54/88/539
f 55/89/540 57/96/540 47/92/540
f 56/93/541 58/104/541 60/94/541
f 61/95/542 59/119/542 57/96/542
f 60/94/543 62/100/543 52/97/543
f 61/95/544 55/89/544 53/90/544
f 66/99/545 64/110/545 62/100/545
f 67/101/546 61/95/546 63/98/546
f 68/103/547 66/99/547 60/94/547
f 69/105/548 59/119/548 61/95/548
f 70/106/549 72/109/549 66/99/549
f 71/107/550 69/105/550 67/101/550
f 72/109/551 74/112/551 64/110/551
f 73/108/552 67/101/552 65/102/552
f 78/68/553 76/73/553 74/112/553
f 79/71/554 73/108/554 75/111/554
f 80/66/555 78/68/555 72/109/555
f 81/70/556 71/107/556 73/108/556
f 70/106/557 84/116/557 82/113/557
f 71/107/558 81/70/558 83/114/558
f 68/103/559 86/118/559 84/116/559
f 69/105/560 71/107/560 85/115/560
f 58/104/561 88/121/561 86/118/561
f 59/119/562 69/105/562 87/117/562
f 56/93/563 90/124/563 88/121/563
f 57/96/564 59/119/564 89/120/564
f 56/93/565 46/91/565 92/123/565
f 93/125/566 47/92/566 57/96/566
f 46/91/567 44/82/567 96/126/567
f 97/127/568 45/85/568 47/92/568
f 44/82/569 34/78/569 98/128/569
f 99/129/570 35/81/570 45/85/570
f 34/78/571 80/66/571 82/113/571
f 83/114/572 81/70/572 35/81/572
f 207/132/573 209/136/573 124/133/573
f 208/135/574 123/140/574 124/133/574
f 205/137/575 207/132/575 122/134/575
f 206/139/576 121/143/576 123/140/576
f 118/141/577 203/145/577 205/137/577
f 206/139/578 204/146/578 119/142/578
f 116/144/579 201/149/579 203/145/579
f 204/146/580 202/150/580 117/147/580
f 114/148/581 199/223/581 201/149/581
f 202/150/582 200/226/582 115/151/582
f 112/152/583 125/159/583 179/153/583
f 180/155/584 126/388/584 113/156/584
f 127/158/585 181/163/585 179/153/585
f 128/160/586 126/388/586 180/155/586
f 127/158/587 129/166/587 183/162/587
f 184/164/588 130/353/588 128/160/588
f 131/165/589 185/170/589 183/162/589
f 132/167/590 130/353/590 184/164/590
f 133/169/591 187/174/591 185/170/591
f 134/171/592 132/167/592 186/168/592
f 135/173/593 189/178/593 187/174/593
f 136/175/594 134/171/594 188/172/594
f 135/173/595 137/181/595 191/177/595
f 192/179/596 138/344/596 136/175/596
f 139/180/597 193/185/597 191/177/597
f 140/182/598 138/344/598 192/179/598
f 141/184/599 195/189/599 193/185/599
f 142/186/600 140/182/600 194/183/600
f 100/188/601 101/190/601 195/189/601
f 100/188/602 142/186/602 196/187/602
f 161/191/603 193/185/603 195/189/603
f 162/193/604 144/616/604 196/187/604
f 161/191/605 212/194/605 191/177/605
f 192/179/606 213/196/606 162/193/606
f 189/178/607 191/177/607 212/194/607
f 190/176/608 160/198/608 213/196/608
f 187/174/609 189/178/609 159/195/609
f 188/172/610 158/200/610 160/198/610
f 185/170/611 187/174/611 157/197/611
f 186/168/612 156/202/612 158/200/612
f 183/162/613 185/170/613 155/199/613
f 184/164/614 154/204/614 156/202/614
f 181/163/615 183/162/615 153/201/615
f 182/161/616 152/206/616 154/204/616
f 179/153/617 181/163/617 151/203/617
f 180/155/618 150/208/618 152/206/618
f 197/154/619 179/153/619 149/205/619
f 198/157/620 148/210/620 150/208/620
f 147/207/621 214/216/621 210/209/621
f 210/209/622 215/217/622 148/210/622
f 195/189/623 101/190/623 145/211/623
f 196/187/624 144/616/624 146/212/624
f 145/211/625 101/190/625 211/213/625
f 211/213/626 101/190/626 146/212/626
f 214/216/627 216/214/627 211/213/627
f 215/217/628 210/209/628 211/213/628
f 168/218/629 170/277/629 209/136/629
f 209/136/630 170/277/630 169/219/630
f 166/220/631 168/218/631 207/132/631
f 208/135/632 169/219/632 167/221/632
f 166/220/633 205/137/633 203/145/633
f 167/221/634 165/227/634 204/146/634
f 199/223/635 220/229/635 218/224/635
f 219/225/636 221/231/636 200/226/636
f 164/222/637 203/145/637 201/149/637
f 202/150/638 204/146/638 165/227/638
f 223/228/165 222/232/165 220/229/165
f 223/228/639 178/239/639 221/231/639
f 220/229/167 222/232/167 102/233/167
f 221/231/640 219/225/640 102/233/640
f 164/222/168 218/224/168 102/233/168
f 165/227/168 163/234/168 102/233/168
f 175/235/641 226/241/641 224/236/641
f 225/237/642 227/242/642 176/238/642
f 173/240/643 228/256/643 226/241/643
f 227/242/644 229/247/644 174/243/644
f 230/244/645 228/256/645 173/240/645
f 231/246/646 172/245/646 174/243/646
f 104/248/647 230/244/647 172/245/647
f 177/230/648 224/236/648 103/250/648
f 178/239/649 223/228/649 103/250/649
f 224/236/179 239/259/179 241/251/179
f 225/237/180 103/250/180 241/251/180
f 104/248/650 232/261/650 233/253/650
f 234/254/651 232/261/651 104/248/651
f 230/244/652 233/253/652 235/255/652
f 236/257/653 234/254/653 231/246/653
f 235/255/654 237/260/654 226/241/654
f 236/257/655 229/247/655 227/242/655
f 226/241/656 237/260/656 239/259/656
f 240/252/657 238/258/657 227/242/657
f 237/260/658 235/255/658 233/253/658
f 238/258/659 232/261/659 234/254/659
f 232/261/660 241/251/660 239/259/660
f 240/252/661 241/251/661 232/261/661
f 172/245/662 173/240/662 197/154/662
f 198/157/663 174/243/663 172/245/663
f 173/240/664 175/235/664 244/262/664
f 245/263/665 176/238/665 174/243/665
f 177/230/666 246/265/666 244/262/666
f 178/239/667 176/238/667 245/263/667
f 220/229/668 199/223/668 246/265/668
f 221/231/669 178/239/669 247/264/669
f 242/266/670 246/265/670 199/223/670
f 243/267/671 115/151/671 200/226/671
f 248/268/672 244/262/672 246/265/672
f 249/269/673 243/267/673 247/264/673
f 112/152/674 197/154/674 244/262/674
f 245/263/675 198/157/675 113/156/675
f 163/234/676 105/272/676 255/270/676
f 163/234/677 165/227/677 256/271/677
f 166/220/678 164/222/678 255/270/678
f 256/271/679 165/227/679 167/221/679
f 168/218/680 166/220/680 253/273/680
f 254/274/681 167/221/681 169/219/681
f 170/277/682 168/218/682 251/275/682
f 252/276/683 169/219/683 170/277/683
f 251/275/213 262/282/213 264/279/213
f 252/276/214 250/278/214 264/279/214
f 251/275/684 253/273/684 260/281/684
f 261/283/685 254/274/685 252/276/685
f 253/273/175 255/270/175 258/284/175
f 259/285/217 256/271/217 254/274/217
f 105/272/218 257/286/218 258/284/218
f 105/272/219 256/271/219 259/285/219
f 257/286/686 264/279/686 262/282/686
f 263/280/687 264/279/687 257/286/687
f 216/214/688 214/216/688 267/287/688
f 268/289/689 215/217/689 217/215/689
f 145/211/690 216/214/690 265/288/690
f 266/290/691 217/215/691 146/212/691
f 145/211/692 287/291/692 289/293/692
f 146/212/693 144/616/693 290/294/693
f 147/207/694 285/297/694 267/287/694
f 148/210/695 215/217/695 268/289/695
f 147/207/696 149/205/696 283/296/696
f 284/298/697 150/208/697 148/210/697
f 149/205/698 151/203/698 281/299/698
f 282/300/699 152/206/699 150/208/699
f 151/203/700 153/201/700 279/301/700
f 280/302/701 154/204/701 152/206/701
f 153/201/702 155/199/702 277/303/702
f 278/304/703 156/202/703 154/204/703
f 157/197/704 275/306/704 277/303/704
f 158/200/705 156/202/705 278/304/705
f 159/195/706 273/309/706 275/306/706
f 160/198/707 158/200/707 276/305/707
f 159/195/708 212/194/708 269/308/708
f 270/310/709 213/196/709 160/198/709
f 212/194/710 161/191/710 271/311/710
f 272/312/711 162/193/711 213/196/711
f 161/191/712 143/192/712 289/293/712
f 290/294/713 144/616/713 162/193/713
f 289/293/714 291/335/714 309/313/714
f 290/294/715 272/312/715 310/314/715
f 269/308/716 271/311/716 309/313/716
f 310/314/717 272/312/717 270/310/717
f 269/308/718 311/316/718 307/318/718
f 270/310/719 274/307/719 308/319/719
f 273/309/720 307/318/720 305/320/720
f 274/307/721 276/305/721 306/321/721
f 277/303/722 275/306/722 305/320/722
f 306/321/723 276/305/723 278/304/723
f 277/303/724 303/322/724 301/324/724
f 278/304/725 280/302/725 302/325/725
f 281/299/726 279/301/726 301/324/726
f 302/325/727 280/302/727 282/300/727
f 281/299/728 299/326/728 297/328/728
f 282/300/729 284/298/729 298/329/729
f 283/296/730 297/328/730 295/330/730
f 284/298/731 286/295/731 296/331/731
f 267/287/268 285/297/268 295/330/268
f 296/331/269 286/295/269 268/289/269
f 289/293/732 287/291/732 293/334/732
f 294/336/733 288/292/733 290/294/733
f 287/291/734 265/288/734 315/337/734
f 316/338/735 266/290/735 288/292/735
f 265/288/736 267/287/736 313/332/736
f 314/333/737 268/289/737 266/290/737
f 100/188/738 141/184/738 317/339/738
f 318/341/739 142/186/739 100/188/739
f 141/184/740 139/180/740 319/342/740
f 320/343/741 140/182/741 142/186/741
f 137/181/742 321/346/742 319/342/742
f 138/344/743 140/182/743 320/343/743
f 135/173/744 323/348/744 321/346/744
f 136/175/745 138/344/745 322/345/745
f 133/169/746 325/351/746 323/348/746
f 134/171/747 136/175/747 324/347/747
f 133/169/748 131/165/748 327/350/748
f 328/352/749 132/167/749 134/171/749
f 129/166/750 329/356/750 327/350/750
f 130/353/751 132/167/751 328/352/751
f 129/166/752 127/158/752 331/355/752
f 332/357/753 128/160/753 130/353/753
f 127/158/754 125/159/754 333/358/754
f 334/359/755 126/388/755 128/160/755
f 342/360/756 361/380/756 371/361/756
f 342/363/757 341/368/757 372/364/757
f 341/362/758 371/361/758 369/366/758
f 341/368/759 340/372/759 370/369/759
f 340/367/760 369/366/760 373/370/760
f 340/372/761 339/371/761 374/373/761
f 122/134/762 124/133/762 339/371/762
f 339/371/763 124/133/763 123/140/763
f 120/138/764 122/134/764 373/370/764
f 374/373/765 123/140/765 121/143/765
f 118/141/766 120/138/766 367/374/766
f 368/375/767 121/143/767 119/142/767
f 116/144/768 118/141/768 363/376/768
f 364/377/769 119/142/769 117/147/769
f 363/376/770 369/366/770 371/361/770
f 372/364/771 370/369/771 364/377/771
f 367/374/772 373/370/772 369/366/772
f 368/375/773 364/377/773 370/369/773
f 365/378/774 371/361/774 361/380/774
f 366/379/775 360/382/775 362/365/775
f 114/148/776 116/144/776 365/378/776
f 366/379/777 117/147/777 115/151/777
f 375/383/778 377/467/778 248/268/778
f 376/384/779 243/267/779 249/269/779
f 359/381/780 375/383/780 242/266/780
f 360/382/781 115/151/781 243/267/781
f 248/268/782 377/467/782 379/386/782
f 249/269/783 113/156/783 380/387/783
f 379/386/784 333/358/784 125/159/784
f 380/387/785 113/156/785 126/388/785
f 357/389/786 385/395/786 337/390/786
f 358/392/787 110/410/787 337/393/787
f 385/395/788 383/461/788 111/396/788
f 386/394/789 337/393/789 111/397/789
f 111/396/790 383/461/790 381/399/790
f 382/401/791 384/398/791 111/397/791
f 338/400/792 381/399/792 361/380/792
f 362/365/793 382/401/793 338/402/793
f 361/380/794 381/399/794 375/383/794
f 362/365/795 360/382/795 376/384/795
f 329/356/796 331/355/796 351/403/796
f 352/405/797 332/357/797 330/354/797
f 349/407/798 357/389/798 110/391/798
f 350/409/799 109/421/799 110/410/799
f 391/411/800 389/443/800 336/412/800
f 392/414/801 335/448/801 336/415/801
f 336/412/802 389/443/802 387/417/802
f 388/419/803 390/416/803 336/415/803
f 108/418/804 387/417/804 349/407/804
f 350/409/805 388/419/805 108/420/805
f 325/422/806 327/350/806 395/423/806
f 396/425/807 328/352/807 326/426/807
f 397/424/808 395/423/808 401/428/808
f 402/430/809 396/425/809 398/427/809
f 399/429/810 401/428/810 403/432/810
f 404/434/811 402/430/811 400/431/811
f 405/433/812 403/432/812 409/436/812
f 410/438/813 404/434/813 406/435/813
f 411/440/814 407/437/814 409/436/814
f 412/442/815 348/617/815 410/438/815
f 349/407/816 387/417/816 407/437/816
f 408/439/817 388/419/817 350/409/817
f 387/417/818 389/443/818 405/433/818
f 406/435/819 390/416/819 388/419/819
f 389/443/820 391/411/820 399/429/820
f 400/431/821 392/414/821 390/416/821
f 391/411/822 393/444/822 397/424/822
f 398/427/823 394/446/823 392/414/823
f 325/422/824 397/424/824 393/444/824
f 326/426/825 324/453/825 394/446/825
f 393/444/826 391/411/826 335/413/826
f 394/446/827 107/454/827 335/448/827
f 317/449/828 319/618/828 321/450/828
f 322/451/829 320/619/829 318/452/829
f 317/449/830 323/445/830 393/444/830
f 394/446/831 324/453/831 318/452/831
f 329/356/832 343/404/832 395/423/832
f 330/354/833 328/352/833 396/425/833
f 343/404/834 345/457/834 401/428/834
f 402/430/835 346/458/835 344/406/835
f 345/457/836 415/459/836 403/432/836
f 404/434/837 416/460/837 346/458/837
f 409/436/838 403/432/838 415/459/838
f 410/438/839 348/617/839 416/460/839
f 383/461/840 419/471/840 417/462/840
f 384/398/841 382/401/841 418/463/841
f 417/462/842 419/471/842 353/465/842
f 418/463/843 352/405/843 354/466/843
f 331/355/844 333/358/844 417/462/844
f 418/463/845 334/359/845 332/357/845
f 333/358/846 377/467/846 375/383/846
f 376/384/847 378/385/847 334/359/847
f 355/468/848 413/472/848 411/440/848
f 356/469/849 348/617/849 412/442/849
f 411/440/850 413/472/850 357/389/850
f 412/442/851 350/409/851 358/392/851
f 419/471/852 413/472/852 355/468/852
f 420/464/853 354/466/853 356/469/853
f 385/395/854 413/472/854 419/471/854
f 386/394/855 384/398/855 420/464/855
f 421/473/856 447/520/856 435/474/856
f 422/476/857 434/482/857 436/477/857
f 433/475/858 435/474/858 437/479/858
f 438/481/859 436/477/859 434/482/859
f 437/479/860 439/487/860 429/484/860
f 438/481/861 432/483/861 430/485/861
f 439/487/862 441/491/862 427/488/862
f 440/486/863 430/485/863 428/489/863
f 441/491/864 443/499/864 425/492/864
f 442/490/865 428/489/865 426/493/865
f 425/492/866 443/499/866 445/495/866
f 446/497/867 444/494/867 426/493/867
f 443/499/868 453/502/868 451/500/868
f 452/501/869 454/503/869 444/494/869
f 441/491/870 455/570/870 453/502/870
f 454/503/871 456/506/871 442/490/871
f 457/504/872 455/570/872 441/491/872
f 458/505/873 440/486/873 442/490/873
f 459/507/874 457/504/874 439/487/874
f 460/508/875 438/481/875 440/486/875
f 461/509/876 459/507/876 437/479/876
f 462/510/877 436/477/877 438/481/877
f 435/474/878 447/520/878 449/511/878
f 450/512/879 448/478/879 436/477/879
f 353/465/880 477/545/880 475/513/880
f 354/466/881 352/405/881 476/514/881
f 423/496/882 445/495/882 477/516/882
f 424/498/883 354/615/883 478/518/883
f 343/404/884 351/403/884 475/513/884
f 476/514/885 352/405/885 344/406/885
f 415/519/886 463/536/886 447/520/886
f 448/478/887 464/539/887 416/521/887
f 445/495/888 451/500/888 473/522/888
f 474/523/889 452/501/889 446/497/889
f 479/524/890 477/516/890 473/522/890
f 480/526/891 472/529/891 474/523/891
f 467/527/892 479/524/892 471/525/892
f 472/529/893 480/526/893 468/530/893
f 481/532/894 479/524/894 467/527/894
f 482/534/895 466/538/895 468/530/895
f 481/532/896 465/533/896 483/535/896
f 482/534/897 464/539/897 484/537/897
f 463/536/898 483/535/898 449/511/898
f 464/539/899 448/478/899 450/512/899
f 345/457/900 481/542/900 463/540/900
f 464/541/901 482/543/901 346/458/901
f 475/513/902 479/546/902 481/542/902
f 476/514/903 346/458/903 482/543/903
f 449/511/904 483/535/904 485/547/904
f 486/549/905 484/537/905 450/512/905
f 465/533/906 495/553/906 485/547/906
f 466/538/907 484/537/907 486/549/907
f 465/533/454 467/527/454 493/552/454
f 494/554/455 468/530/455 466/538/455
f 469/528/908 491/556/908 493/552/908
f 470/531/909 468/530/909 494/554/909
f 471/525/910 489/559/910 491/556/910
f 472/529/911 470/531/911 492/555/911
f 471/525/912 473/522/912 487/558/912
f 488/560/913 474/523/913 472/529/913
f 473/522/914 451/500/914 507/561/914
f 508/562/915 452/501/915 474/523/915
f 461/509/916 449/511/916 509/548/916
f 510/550/917 450/512/917 462/510/917
f 459/507/918 461/509/918 497/563/918
f 498/564/919 462/510/919 460/508/919
f 457/504/920 459/507/920 499/565/920
f 500/566/921 460/508/921 458/505/921
f 457/504/922 501/567/922 503/569/922
f 458/505/923 456/506/923 504/571/923
f 455/570/924 503/569/924 505/572/924
f 456/506/925 454/503/925 506/573/925
f 453/502/926 505/572/926 507/561/926
f 454/503/927 452/501/927 508/562/927
f 489/559/928 513/577/928 511/574/928
f 490/557/929 492/555/929 512/575/929
f 513/577/930 515/620/930 517/578/930
f 514/576/931 512/575/931 518/579/931
f 517/578/932 515/620/932 521/581/932
f 522/583/933 516/580/933 518/579/933
f 521/581/934 523/588/934 525/585/934
f 522/583/935 520/584/935 526/586/935
f 497/563/936 509/548/936 519/582/936
f 520/584/937 510/550/937 498/564/937
f 517/578/938 519/582/938 509/548/938
f 518/579/939 486/549/939 510/550/939
f 495/553/940 511/574/940 517/578/940
f 496/551/941 486/549/941 518/579/941
f 491/556/942 511/574/942 495/553/942
f 496/551/943 512/575/943 492/555/943
f 507/561/944 513/577/944 489/559/944
f 508/562/945 488/560/945 490/557/945
f 505/572/946 515/620/946 513/577/946
f 514/576/947 516/580/947 506/573/947
f 521/581/948 515/620/948 505/572/948
f 522/583/949 504/571/949 506/573/949
f 523/588/950 521/581/950 503/569/950
f 524/587/951 502/568/951 504/571/951
f 499/565/952 525/585/952 523/588/952
f 524/587/953 526/586/953 500/566/953
f 425/492/954 423/496/954 537/589/954
f 538/591/955 424/498/955 426/493/955
f 427/488/956 425/492/956 535/590/956
f 536/592/957 426/493/957 428/489/957
f 427/488/958 533/593/958 531/595/958
f 428/489/959 430/485/959 532/596/959
f 429/484/960 531/595/960 529/597/960
f 430/485/961 432/602/961 530/599/961
f 431/598/962 529/597/962 527/600/962
f 432/602/963 434/606/963 528/603/963
f 433/601/964 527/600/964 539/604/964
f 434/606/965 422/611/965 540/607/965
f 535/590/966 537/589/966 539/604/966
f 536/592/967 528/603/967 540/607/967
f 527/600/968 529/597/968 533/593/968
f 534/594/969 530/599/969 528/603/969
f 415/608/970 421/605/970 539/604/970
f 416/610/971 348/613/971 540/607/971
f 347/609/972 539/604/972 537/589/972
f 538/591/973 540/607/973 348/613/973
f 353/517/974 355/612/974 537/589/974
f 538/591/975 356/614/975 354/615/975
